<?xml version="1.0" standalone="no"?>
<!DOCTYPE svg PUBLIC "-//W3C//DTD SVG 1.1//EN" "http://www.w3.org/Graphics/SVG/1.1/DTD/svg11.dtd" >
<!--
Created with mf2outline.
-->
<svg xmlns="http://www.w3.org/2000/svg" xmlns:xlink="http://www.w3.org/1999/xlink" version="1.1">
<metadata>
Created by FontForge 20201107 at Tue Oct  3 22:19:32 2023
 By 
Copyright (c) 2023, Metaflop (http://www.metaflop.com), Simon Egli, Marco Mueller, Alexis Reigel, with Reserved Font Name Bespoke. Dual licensed under the GPL v3 (http://www.gnu.org/copyleft/gpl.html) and the OFL v1.1 (http://scripts.sil.org/OFL_web).
</metadata>
<defs>
<font id="Bespoke-9Tm3sikLE0" horiz-adv-x="665" >
  <font-face 
    font-family="Bespoke"
    font-weight="500"
    font-stretch="normal"
    units-per-em="1000"
    panose-1="2 0 5 3 0 0 0 0 0 0"
    ascent="800"
    descent="-200"
    x-height="484"
    cap-height="820"
    bbox="-184 -327 1422 1087"
    underline-thickness="50"
    underline-position="-100"
    unicode-range="U+0020-FB04"
  />
    <missing-glyph />
    <glyph glyph-name="fi" unicode="fi" horiz-adv-x="658" 
d="M142 394l23 90h110l40 153c16 61 62 114 114 160c49 43 104 83 161 83s93 -40 119 -83c19 -31 33 -65 36 -102l-100 -31v6c0 24 -7 47 -17 68c-13 26 -29 52 -61 52s-62 -26 -88 -52c-30 -30 -55 -64 -65 -101l-40 -153h326l-126 -484h-99l102 394h-227l-102 -394h-99
l102 394h-109z" />
    <glyph glyph-name="guillemotright" unicode="&#x3e;&#x3e;" horiz-adv-x="658" 
d="M392 242l-202 -242h-127l201 242l-75 242h127zM658 242l-202 -242h-127l201 242l-75 242h127z" />
    <glyph glyph-name="guillemotleft" unicode="&#x3c;&#x3c;" horiz-adv-x="658" 
d="M253 242l76 -242h-127l-76 242l201 242h128zM519 242l76 -242h-127l-76 242l201 242h128z" />
    <glyph glyph-name="quotedblright" unicode="&#x2019;&#x2019;" horiz-adv-x="644" 
d="M251 554l172 266h99l-198 -266h-73zM657 820h114l-200 -266h-84z" />
    <glyph glyph-name="exclamdown" unicode="&#x21;&#x2018;" horiz-adv-x="407" 
d="M76 -300l150 577h99l-150 -577h-99zM308 400c-25 0 -50 28 -50 54c0 24 18 40 35 53c15 12 31 22 48 22c25 0 49 -28 49 -54c0 -24 -17 -40 -34 -53c-15 -12 -31 -22 -48 -22z" />
    <glyph glyph-name="fl" unicode="fl" horiz-adv-x="693" 
d="M547 745c-4 19 -16 45 -37 45c-16 0 -31 -13 -44 -26c-15 -15 -27 -33 -32 -51l-60 -229h112l-24 -90h-111l-102 -394h-99l102 394h-110l23 90h110l60 229c11 42 44 79 81 110c36 30 76 57 117 57c50 0 82 -41 101 -79zM510 0l226 870h99l-226 -870h-99z" />
    <glyph glyph-name="questiondown" unicode="&#x3f;&#x2018;" horiz-adv-x="602" 
d="M510 -168c-57 -60 -159 -142 -248 -142c-65 0 -110 41 -143 88c-26 37 -47 80 -47 128c0 14 2 29 6 44c17 66 71 123 130 171c43 35 90 66 138 80l20 76h99l-42 -158h-49c-40 0 -81 -28 -116 -58c-37 -32 -70 -68 -81 -111c-3 -10 -4 -21 -4 -31c0 -30 12 -57 27 -81
c19 -30 46 -58 86 -58s81 28 116 58c17 14 33 29 46 46zM447 400c-25 0 -49 28 -49 54c0 24 17 40 34 53c15 12 31 22 48 22c25 0 50 -28 50 -54c0 -24 -18 -40 -35 -53c-15 -12 -31 -22 -48 -22z" />
    <glyph glyph-name="endash" unicode="&#x2d;&#x2d;" horiz-adv-x="658" 
d="M93 197l24 90h574l-24 -90h-574z" />
    <glyph glyph-name="emdash" unicode="&#x2013;&#x2d;" horiz-adv-x="1148" 
d="M93 197l24 90h1064l-24 -90h-1064z" />
    <glyph glyph-name="quotedblleft" unicode="&#x2018;&#x2018;" horiz-adv-x="644" 
d="M238 554l197 266h74l-172 -266h-99zM671 820h85l-170 -266h-114z" />
    <glyph glyph-name="ring" unicode="&#x2da;" horiz-adv-x="294" 
d="M352 790c-15 0 -31 -8 -45 -18s-31 -21 -31 -41c0 -11 6 -20 13 -27c9 -10 21 -18 36 -18s32 8 46 18s30 21 30 41c0 11 -6 20 -13 27c-9 10 -21 18 -36 18zM368 850c32 0 56 -17 74 -38c14 -16 27 -36 27 -58c0 -5 -2 -10 -3 -16c-8 -30 -34 -54 -62 -74
c-29 -21 -62 -38 -94 -38s-56 17 -74 38c-14 16 -27 36 -27 58c0 5 1 10 2 16c8 30 35 54 63 74c29 21 62 38 94 38z" />
    <glyph glyph-name="rcaron" unicode="&#x159;" horiz-adv-x="444" 
d="M519 331c-17 35 -44 73 -89 73c-38 0 -75 -28 -108 -57c-35 -31 -66 -68 -77 -109l-62 -238h-99l126 484h99l-26 -100c44 48 109 110 171 110c71 0 117 -53 148 -105zM575 738h84l-160 -164h-113l-76 164h84l65 -101z" />
    <glyph glyph-name="Eng" unicode="&#x14a;" horiz-adv-x="875" 
d="M98 0l213 820h29l391 -617l160 617h99l-242 -930c-14 -52 -58 -96 -106 -132c-49 -37 -104 -68 -158 -68s-93 31 -123 68c-16 19 -30 41 -37 65l95 47c1 -20 10 -38 22 -53c16 -20 37 -37 66 -37s59 17 85 37s50 44 57 73l49 188l-341 539l-160 -617h-99z" />
    <glyph glyph-name="Q" unicode="Q" horiz-adv-x="980" 
d="M682 740c-85 0 -170 -52 -245 -112c-76 -60 -146 -133 -168 -218c-5 -19 -7 -36 -7 -54c0 -62 27 -117 61 -164c44 -60 103 -112 188 -112c57 0 115 23 169 57l-96 117h150l40 -48c69 57 131 126 151 204c5 19 7 36 7 54c0 62 -28 117 -62 164c-44 60 -103 112 -188 112z
M706 830c109 0 186 -66 244 -143c45 -60 82 -129 82 -209c0 -22 -2 -45 -8 -68c-27 -102 -110 -190 -201 -264l120 -146h-151l-63 77c-77 -51 -160 -87 -242 -87c-109 0 -186 66 -244 143c-45 60 -82 129 -82 209c0 22 3 45 9 68c28 109 120 201 217 277
c98 77 210 143 319 143z" />
    <glyph glyph-name="Abreve" unicode="&#x102;" horiz-adv-x="777" 
d="M14 0l573 820h29l147 -820h-101l-21 120h-431l-84 -120h-112zM797 1034c-11 -42 -53 -74 -94 -100c-46 -29 -96 -51 -144 -51s-86 22 -117 51c-23 22 -44 48 -44 80c0 6 1 13 3 20h79c-1 -3 -1 -5 -1 -8c0 -17 15 -29 29 -39c20 -14 44 -24 72 -24s57 10 85 24
c22 12 46 25 52 47h80zM625 210l-72 400l-280 -400h352z" />
    <glyph glyph-name="i" unicode="i" horiz-adv-x="266" 
d="M84 0l125 484h99l-126 -484h-98zM336 697c26 0 50 -29 50 -56c0 -25 -18 -41 -35 -55c-15 -12 -33 -23 -50 -23s-29 11 -38 23c-7 10 -13 20 -13 33c0 25 18 41 35 55c15 12 34 23 51 23z" />
    <glyph glyph-name="quoteright" unicode="&#x2019;" horiz-adv-x="357" 
d="M390 820h114l-201 -266h-84z" />
    <glyph glyph-name="Gbreve" unicode="&#x11e;" horiz-adv-x="1001" 
d="M870 200c-87 -90 -243 -210 -383 -210c-109 0 -186 66 -244 143c-45 60 -82 129 -82 209c0 22 3 45 9 68c28 109 120 201 217 277c98 77 210 143 319 143s186 -66 244 -143c31 -41 58 -87 72 -137l-94 -44c-9 45 -31 86 -58 122c-44 60 -103 112 -188 112
s-170 -52 -245 -112c-76 -60 -146 -133 -168 -218c-5 -19 -7 -36 -7 -54c0 -62 27 -117 61 -164c44 -60 103 -112 188 -112c80 0 164 40 240 90c36 24 71 50 100 80h-296l23 90h328c0 1 1 3 1 4h50c0 -1 -1 -3 -1 -4h49l-88 -340h-99zM898 1034c-11 -42 -52 -74 -93 -100
c-46 -29 -96 -51 -144 -51s-86 22 -117 51c-23 22 -44 48 -44 80c0 6 0 13 2 20h79c-1 -3 -1 -5 -1 -8c0 -17 16 -29 30 -39c20 -14 44 -24 72 -24s56 10 84 24c22 12 47 25 53 47h79z" />
    <glyph glyph-name="Ohungarumlaut" unicode="&#x150;" horiz-adv-x="980" 
d="M493 882l155 164h111l-183 -164h-83zM858 1046h111l-183 -164h-83zM682 740c-85 0 -170 -52 -245 -112c-76 -60 -146 -133 -168 -218c-5 -19 -7 -36 -7 -54c0 -62 27 -117 61 -164c44 -60 103 -112 188 -112s170 52 245 112c76 60 147 133 169 218c5 19 7 36 7 54
c0 62 -28 117 -62 164c-44 60 -103 112 -188 112zM706 830c109 0 186 -66 244 -143c45 -60 82 -129 82 -209c0 -22 -2 -45 -8 -68c-28 -109 -121 -201 -218 -277c-98 -77 -210 -143 -319 -143s-186 66 -244 143c-45 60 -82 129 -82 209c0 22 3 45 9 68
c28 109 120 201 217 277c98 77 210 143 319 143z" />
    <glyph glyph-name="racute" unicode="&#x155;" horiz-adv-x="444" 
d="M519 331c-17 35 -44 73 -89 73c-38 0 -75 -28 -108 -57c-35 -31 -66 -68 -77 -109l-62 -238h-99l126 484h99l-26 -100c44 48 109 110 171 110c71 0 117 -53 148 -105zM543 738h114l-194 -164h-84z" />
    <glyph glyph-name="udieresis" unicode="&#xfc;" 
d="M504 83c-46 -43 -116 -93 -178 -93s-110 32 -147 72c-28 30 -54 66 -54 109c0 10 1 20 4 30l74 283h99l-74 -283c-1 -6 -2 -11 -2 -16c0 -26 17 -47 34 -64c23 -23 53 -41 90 -41s76 18 111 41c32 21 64 47 73 80l74 283h99l-126 -484h-99zM406 697c26 0 50 -29 50 -56
c0 -25 -18 -41 -35 -55c-15 -12 -33 -23 -50 -23s-29 11 -38 23c-7 10 -13 20 -13 33c0 25 18 41 35 55c15 12 34 23 51 23zM658 697c26 0 50 -29 50 -56c0 -25 -18 -41 -35 -55c-15 -12 -33 -23 -50 -23s-29 11 -38 23c-7 10 -13 20 -13 33c0 25 18 41 35 55
c15 12 34 23 51 23z" />
    <glyph glyph-name="slash" unicode="/" horiz-adv-x="525" 
d="M17 -41l586 902h118l-586 -902h-118z" />
    <glyph glyph-name="asciitilde" unicode="~" horiz-adv-x="686" 
d="M272 212c-27 0 -67 -20 -73 -43h-99c9 36 44 65 78 88c37 25 78 45 118 45c85 0 159 -31 244 -31c15 0 30 7 44 15c12 7 26 16 29 28h99c-9 -36 -44 -64 -78 -87c-37 -25 -78 -46 -118 -46c-85 0 -159 31 -244 31z" />
    <glyph glyph-name="section" unicode="&#xa7;" 
d="M636 656c-18 42 -61 84 -115 84c-38 0 -77 -20 -112 -45c-33 -24 -66 -53 -75 -89c-2 -7 -3 -13 -3 -19c0 -27 15 -50 32 -69c22 -25 51 -45 89 -45c62 0 110 -32 147 -72c28 -31 54 -67 54 -111c0 -10 -1 -19 -4 -30c-15 -58 -69 -104 -123 -141
c-25 -17 -51 -33 -78 -45c21 -11 39 -25 56 -40c29 -26 58 -57 58 -97c0 -8 -1 -15 -3 -23c-15 -59 -70 -108 -125 -148c-58 -42 -123 -76 -186 -76c-78 0 -136 54 -171 108l82 61c6 -12 15 -24 24 -34c22 -25 51 -45 89 -45s78 20 113 45c33 24 66 53 75 89c2 7 2 13 2 19
c0 27 -15 50 -32 69c-22 25 -51 45 -89 45c-62 0 -110 32 -147 72c-28 31 -53 67 -53 111c0 10 1 19 4 30c15 58 68 104 122 141c25 17 51 33 78 45c-21 11 -39 25 -56 40c-29 26 -57 57 -57 97c0 8 1 15 3 23c15 59 69 108 124 148c58 42 123 76 186 76
c80 0 141 -58 175 -115zM429 383c-38 0 -77 -18 -112 -42c-32 -21 -64 -47 -73 -81c-2 -6 -3 -12 -3 -17c0 -26 17 -46 34 -64c23 -24 52 -42 90 -42s76 18 111 42c32 21 65 47 74 81c2 6 2 12 2 17c0 26 -16 46 -33 64c-23 24 -52 42 -90 42z" />
    <glyph glyph-name="guilsinglright" unicode="&#x203a;" horiz-adv-x="385" 
d="M385 242l-195 -242h-127l195 242l-69 242h126z" />
    <glyph glyph-name="Edieresis" unicode="&#xcb;" horiz-adv-x="651" 
d="M98 0l213 820h504l-23 -90h-405l-102 -390h356l-23 -90h-356l-42 -160h405l-23 -90h-504zM392 871c-27 0 -51 29 -51 56c0 25 18 41 35 55c15 12 34 22 51 22c27 0 50 -28 50 -55c0 -25 -18 -42 -35 -56c-15 -12 -33 -22 -50 -22zM644 871c-27 0 -51 29 -51 56
c0 25 18 41 35 55c15 12 34 22 51 22c27 0 50 -28 50 -55c0 -25 -18 -42 -35 -56c-15 -12 -33 -22 -50 -22z" />
    <glyph glyph-name="eng" unicode="&#x14b;" 
d="M285 392c54 46 137 102 210 102c56 0 96 -33 127 -72c24 -30 44 -65 44 -106c0 -11 -2 -22 -5 -33l-102 -393c-13 -50 -52 -95 -95 -132c-41 -36 -88 -68 -135 -68s-78 32 -101 68c-13 20 -23 41 -28 65l98 41c0 -17 4 -33 11 -47c9 -19 20 -37 43 -37s44 18 62 37
c21 21 39 47 46 73l102 393c2 7 3 13 3 19c0 23 -10 44 -23 61c-17 22 -39 41 -70 41c-44 0 -89 -17 -132 -41c-36 -20 -75 -44 -84 -80l-73 -283h-99l126 484h99z" />
    <glyph glyph-name="r" unicode="r" horiz-adv-x="444" 
d="M519 331c-17 35 -44 73 -89 73c-38 0 -75 -28 -108 -57c-35 -31 -66 -68 -77 -109l-62 -238h-99l126 484h99l-26 -100c44 48 109 110 171 110c71 0 117 -53 148 -105z" />
    <glyph glyph-name="u" unicode="u" 
d="M504 83c-46 -43 -116 -93 -178 -93s-110 32 -147 72c-28 30 -54 66 -54 109c0 10 1 20 4 30l74 283h99l-74 -283c-1 -6 -2 -11 -2 -16c0 -26 17 -47 34 -64c23 -23 53 -41 90 -41s76 18 111 41c32 21 64 47 73 80l74 283h99l-126 -484h-99z" />
    <glyph glyph-name="Odieresis" unicode="&#xd6;" horiz-adv-x="980" 
d="M532 871c-27 0 -51 29 -51 56c0 25 18 41 35 55c15 12 34 22 51 22c27 0 50 -28 50 -55c0 -25 -18 -42 -35 -56c-15 -12 -33 -22 -50 -22zM784 871c-27 0 -51 29 -51 56c0 25 18 41 35 55c15 12 34 22 51 22c27 0 50 -28 50 -55c0 -25 -18 -42 -35 -56
c-15 -12 -33 -22 -50 -22zM682 740c-85 0 -170 -52 -245 -112c-76 -60 -146 -133 -168 -218c-5 -19 -7 -36 -7 -54c0 -62 27 -117 61 -164c44 -60 103 -112 188 -112s170 52 245 112c76 60 147 133 169 218c5 19 7 36 7 54c0 62 -28 117 -62 164c-44 60 -103 112 -188 112z
M706 830c109 0 186 -66 244 -143c45 -60 82 -129 82 -209c0 -22 -2 -45 -8 -68c-28 -109 -121 -201 -218 -277c-98 -77 -210 -143 -319 -143s-186 66 -244 143c-45 60 -82 129 -82 209c0 22 3 45 9 68c28 109 120 201 217 277c98 77 210 143 319 143z" />
    <glyph glyph-name="Zdotaccent" unicode="&#x17b;" horiz-adv-x="714" 
d="M225 730l23 90h644l-7 -29l-650 -701h467l-23 -90h-644l8 29l650 701h-468zM525 871c-27 0 -51 29 -51 56c0 25 18 41 35 55c15 12 34 22 51 22c27 0 50 -28 50 -55c0 -25 -18 -42 -35 -56c-15 -12 -33 -22 -50 -22z" />
    <glyph glyph-name="Igrave" unicode="&#xcc;" horiz-adv-x="323" 
d="M112 0l213 820h99l-213 -820h-99zM202 1046h114l79 -164h-84z" />
    <glyph glyph-name="P" unicode="P" horiz-adv-x="714" 
d="M98 0l213 820h268c79 0 134 -50 175 -106c32 -44 57 -95 57 -153c0 -17 -2 -34 -7 -52c-21 -80 -86 -148 -157 -205c-70 -56 -150 -105 -229 -105h-169l-52 -199h-99zM387 730l-115 -441h169c54 0 108 35 156 75c49 41 93 89 108 145c3 13 5 27 5 39c0 40 -16 76 -37 107
c-27 40 -63 75 -117 75h-169z" />
    <glyph glyph-name="tcaron" unicode="&#x165;" horiz-adv-x="378" 
d="M114 394l23 90h128l101 386h99l-101 -386h128l-23 -90h-128l-103 -394h-98l102 394h-128zM691 870h114l-201 -266h-84z" />
    <glyph glyph-name="Scedilla" unicode="&#x15e;" horiz-adv-x="728" 
d="M112 182l100 35v-8c0 -33 23 -58 47 -79c33 -29 73 -50 122 -50c50 0 103 19 151 48c41 25 82 58 93 100c2 9 4 18 4 27c0 44 -30 77 -75 87l-169 54c-85 18 -148 77 -148 158c0 14 2 29 6 44c16 63 71 115 130 156c64 44 135 76 203 76s120 -35 160 -79
c27 -30 51 -64 56 -105l-100 -18c-3 25 -20 46 -37 64c-26 27 -59 48 -102 48s-88 -20 -129 -47c-37 -25 -72 -56 -82 -95c-2 -8 -3 -17 -3 -24c0 -46 39 -77 88 -88l169 -54c81 -17 135 -77 135 -156c0 -15 -3 -31 -7 -48c-17 -66 -78 -119 -141 -160s-131 -71 -198 -77
l-23 -46c34 -4 62 -22 84 -45c19 -20 37 -43 37 -72c0 -6 0 -11 -2 -18c-10 -37 -46 -67 -82 -91c-39 -26 -82 -46 -124 -46s-73 20 -99 46c-19 19 -36 42 -37 69l82 22c-1 -3 -2 -6 -2 -9c0 -14 10 -25 21 -34c14 -13 32 -22 54 -22s45 9 66 22c19 12 42 26 42 51
c0 14 -9 25 -20 34c-14 13 -32 22 -54 22h-74l59 120c-54 11 -98 41 -135 77c-31 31 -61 67 -66 111z" />
    <glyph glyph-name="b" unicode="b" horiz-adv-x="721" 
d="M375 -10c-76 0 -127 63 -156 122l-29 -112h-99l226 870h99l-129 -499c54 53 141 123 219 123c72 0 126 -39 168 -86c32 -36 59 -78 59 -129c0 -12 -2 -24 -5 -37c-17 -67 -79 -121 -141 -166c-66 -47 -140 -86 -212 -86zM483 404c-47 0 -95 -24 -138 -55
c-41 -29 -81 -64 -92 -107c-2 -8 -3 -16 -3 -24c0 -33 18 -60 39 -83c28 -31 63 -55 110 -55s95 24 138 55c41 29 81 64 92 107c2 8 3 15 3 23c0 33 -18 61 -39 84c-28 31 -63 55 -110 55z" />
    <glyph glyph-name="Yacute" unicode="&#xdd;" horiz-adv-x="728" 
d="M220 820h102l123 -476l371 476h118l-461 -593l-59 -227h-100l60 227zM636 1046h114l-194 -164h-85z" />
    <glyph glyph-name="ecircumflex" unicode="&#xea;" horiz-adv-x="693" 
d="M667 150c-27 -33 -67 -61 -106 -85c-68 -43 -143 -75 -214 -75c-73 0 -128 38 -171 86c-33 36 -62 79 -62 130c0 12 2 23 5 36c18 68 80 122 143 166c68 48 143 86 216 86s129 -38 172 -86c33 -36 62 -79 62 -130c0 -12 -2 -23 -5 -36l-12 -45h-100zM371 80
c46 0 95 18 140 44c34 19 69 42 84 73h-377c6 -24 21 -44 38 -62c29 -31 67 -55 115 -55zM608 287c-6 24 -22 44 -39 62c-29 31 -66 55 -114 55s-98 -24 -143 -55c-26 -18 -52 -38 -71 -62h367zM547 675l-117 -101h-84l161 164h113l75 -164h-84z" />
    <glyph glyph-name="ocircumflex" unicode="&#xf4;" horiz-adv-x="700" 
d="M455 404c-48 0 -98 -24 -143 -55c-41 -28 -83 -63 -94 -107c-2 -8 -3 -16 -3 -23c0 -33 19 -61 41 -84c29 -31 67 -55 115 -55s98 24 143 55c41 28 83 63 94 107c2 8 3 16 3 23c0 33 -20 61 -42 84c-29 31 -66 55 -114 55zM478 494c73 0 129 -38 172 -86
c33 -36 62 -79 62 -130c0 -12 -2 -23 -5 -36c-18 -68 -80 -122 -143 -166c-68 -48 -144 -86 -217 -86s-128 38 -171 86c-33 36 -62 79 -62 130c0 12 2 23 5 36c18 68 80 122 143 166c68 48 143 86 216 86zM547 675l-117 -101h-84l161 164h113l75 -164h-84z" />
    <glyph glyph-name="eogonek" unicode="&#x119;" horiz-adv-x="693" 
d="M667 150c-27 -33 -67 -61 -106 -85c-61 -38 -127 -68 -192 -74l-114 -99c-28 -27 -68 -47 -77 -82c-1 -3 -1 -6 -1 -9c0 -14 10 -25 21 -34c14 -13 32 -22 54 -22s44 9 65 22c18 11 36 23 41 41l59 -38c-16 -19 -38 -36 -60 -51c-39 -26 -82 -46 -124 -46s-74 20 -100 46
c-19 20 -37 43 -37 72c0 6 1 12 3 19c17 67 95 103 149 154l40 35c-45 14 -81 43 -112 77c-33 36 -62 79 -62 130c0 12 2 23 5 36c18 68 80 122 143 166c68 48 143 86 216 86s129 -38 172 -86c33 -36 62 -79 62 -130c0 -12 -2 -23 -5 -36l-12 -45h-100zM371 80
c46 0 95 18 140 44c34 19 69 42 84 73h-377c6 -24 21 -44 38 -62c29 -31 67 -55 115 -55zM608 287c-6 24 -22 44 -39 62c-29 31 -66 55 -114 55s-98 -24 -143 -55c-26 -18 -52 -38 -71 -62h367z" />
    <glyph glyph-name="ffi" unicode="&#xfb03;" horiz-adv-x="973" 
d="M548 717c0 28 -8 73 -35 73c-19 0 -35 -19 -49 -36c-18 -22 -33 -46 -39 -71l-52 -199h229l40 153c16 60 61 114 112 160c47 43 101 83 157 83s90 -40 115 -83c18 -31 32 -65 34 -102l-100 -30v7c0 23 -6 46 -15 66c-11 26 -26 52 -57 52s-59 -26 -84 -52
c-29 -30 -53 -64 -63 -101l-40 -153h314l-126 -484h-99l102 394h-214l-103 -394h-99l103 394h-229l-102 -394h-99l102 394h-109l23 90h109l52 199c13 48 48 92 88 130c36 34 78 67 122 67s68 -33 87 -67c9 -17 18 -36 22 -55z" />
    <glyph glyph-name="plus" unicode="+" horiz-adv-x="686" 
d="M419 484h99l-51 -197h238l-24 -90h-237l-52 -197h-98l51 197h-238l24 90h237z" />
    <glyph glyph-name="Eogonek" unicode="&#x118;" horiz-adv-x="651" 
d="M98 0l213 820h504l-23 -90h-405l-102 -390h356l-23 -90h-356l-42 -160h405l-23 -90h-3l-124 -108c-28 -27 -68 -47 -77 -82c-1 -3 -1 -6 -1 -9c0 -14 9 -25 20 -34c14 -13 32 -22 54 -22s45 9 66 22c18 11 36 23 41 41l59 -38c-16 -19 -38 -36 -60 -51
c-39 -26 -82 -46 -124 -46s-74 20 -100 46c-19 20 -37 43 -37 72c0 6 0 12 2 19c17 67 96 103 150 154l41 36h-411z" />
    <glyph glyph-name="R" unicode="R" horiz-adv-x="707" 
d="M98 0l213 820h268c78 0 134 -47 176 -102c33 -43 59 -92 59 -149c0 -16 -3 -32 -7 -49c-25 -96 -123 -179 -208 -235l101 -285h-107l-82 238c-29 -11 -58 -17 -87 -17h-170l-57 -221h-99zM387 730l-109 -419h169c53 0 107 33 155 71s92 84 106 138c3 12 5 24 5 35
c0 39 -17 74 -39 104c-28 38 -65 71 -118 71h-169z" />
    <glyph glyph-name="ecaron" unicode="&#x11b;" horiz-adv-x="693" 
d="M667 150c-27 -33 -67 -61 -106 -85c-68 -43 -143 -75 -214 -75c-73 0 -128 38 -171 86c-33 36 -62 79 -62 130c0 12 2 23 5 36c18 68 80 122 143 166c68 48 143 86 216 86s129 -38 172 -86c33 -36 62 -79 62 -130c0 -12 -2 -23 -5 -36l-12 -45h-100zM654 738h84
l-161 -164h-113l-75 164h84l64 -101zM371 80c46 0 95 18 140 44c34 19 69 42 84 73h-377c6 -24 21 -44 38 -62c29 -31 67 -55 115 -55zM608 287c-6 24 -22 44 -39 62c-29 31 -66 55 -114 55s-98 -24 -143 -55c-26 -18 -52 -38 -71 -62h367z" />
    <glyph glyph-name="V" unicode="V" horiz-adv-x="736" 
d="M224 820h101l94 -596l403 596h116l-555 -820h-29z" />
    <glyph glyph-name="AE" unicode="&#xc6;" horiz-adv-x="1127" 
d="M14 0l702 820h575l-23 -90h-427l-101 -390h367l-23 -90h-367l-42 -160h426l-23 -90h-526l46 176h-314l-152 -176h-118zM361 266h261l114 438z" />
    <glyph glyph-name="bracketright" unicode="]" horiz-adv-x="392" 
d="M266 861h224l-302 -1161h-224l23 90h125l255 981h-125z" />
    <glyph glyph-name="H" unicode="H" horiz-adv-x="840" 
d="M98 0l213 820h99l-125 -480h446l125 480h99l-213 -820h-99l65 250h-446l-65 -250h-99z" />
    <glyph glyph-name="exclam" unicode="!" horiz-adv-x="407" 
d="M219 252l148 568h99l-148 -568h-99zM204 0c-25 0 -50 28 -50 54c0 24 18 40 35 53c15 12 31 22 48 22c25 0 49 -28 49 -54c0 -24 -17 -40 -34 -53c-15 -12 -31 -22 -48 -22z" />
    <glyph glyph-name="Aogonek" unicode="&#x104;" horiz-adv-x="777" 
d="M14 0l573 820h29l147 -820h-7l-125 -108c-28 -27 -68 -47 -77 -82c-1 -3 -1 -6 -1 -9c0 -14 10 -25 21 -34c14 -13 32 -22 54 -22s44 9 65 22c18 11 37 23 42 41l58 -38c-16 -19 -38 -36 -60 -51c-39 -26 -82 -46 -124 -46s-73 20 -99 46c-19 20 -37 43 -37 72
c0 6 0 12 2 19c17 67 96 103 150 154l41 36h-4l-21 120h-431l-84 -120h-112zM625 210l-72 400l-280 -400h352z" />
    <glyph glyph-name="L" unicode="L" horiz-adv-x="644" 
d="M98 0l213 820h99l-190 -730h405l-23 -90h-504z" />
    <glyph glyph-name="comma" unicode="," horiz-adv-x="329" 
d="M142 97h129l-204 -242h-96z" />
    <glyph glyph-name="ydieresis" unicode="&#xff;" horiz-adv-x="588" 
d="M133 484h102l84 -350l265 350h123l-596 -784h-123l253 333zM371 697c26 0 50 -29 50 -56c0 -25 -18 -41 -35 -55c-15 -12 -33 -23 -50 -23s-29 11 -38 23c-7 10 -13 20 -13 33c0 25 18 41 35 55c15 12 34 23 51 23zM623 697c26 0 50 -29 50 -56c0 -25 -18 -41 -35 -55
c-15 -12 -33 -23 -50 -23s-29 11 -38 23c-7 10 -13 20 -13 33c0 25 18 41 35 55c15 12 34 23 51 23z" />
    <glyph glyph-name="O" unicode="O" horiz-adv-x="980" 
d="M682 740c-85 0 -170 -52 -245 -112c-76 -60 -146 -133 -168 -218c-5 -19 -7 -36 -7 -54c0 -62 27 -117 61 -164c44 -60 103 -112 188 -112s170 52 245 112c76 60 147 133 169 218c5 19 7 36 7 54c0 62 -28 117 -62 164c-44 60 -103 112 -188 112zM706 830
c109 0 186 -66 244 -143c45 -60 82 -129 82 -209c0 -22 -2 -45 -8 -68c-28 -109 -121 -201 -218 -277c-98 -77 -210 -143 -319 -143s-186 66 -244 143c-45 60 -82 129 -82 209c0 22 3 45 9 68c28 109 120 201 217 277c98 77 210 143 319 143z" />
    <glyph glyph-name="bar" unicode="|" horiz-adv-x="280" 
d="M80 -41l234 902h99l-234 -902h-99z" />
    <glyph glyph-name="underscore" unicode="_" horiz-adv-x="658" 
d="M-1 -165l23 90h574l-23 -90h-574z" />
    <glyph glyph-name="circumflex" unicode="&#x2c6;" horiz-adv-x="294" 
d="M344 757l-117 -101h-84l161 164h113l75 -164h-84z" />
    <glyph glyph-name="Ecircumflex" unicode="&#xca;" horiz-adv-x="651" 
d="M98 0l213 820h504l-23 -90h-405l-102 -390h356l-23 -90h-356l-42 -160h405l-23 -90h-504zM547 983l-117 -101h-84l161 164h113l75 -164h-84z" />
    <glyph glyph-name="asterisk" unicode="*" horiz-adv-x="651" 
d="M489 820h99l-39 -151l163 49l-31 -117l-130 -39l81 -152h-108l-62 116l-121 -116h-108l159 152l-110 39l31 117l137 -49z" />
    <glyph glyph-name="dcaron" unicode="&#x10f;" horiz-adv-x="721" 
d="M471 494c76 0 128 -64 157 -123l129 499h99l-226 -870h-99l29 112c-54 -53 -142 -122 -220 -122c-72 0 -125 39 -167 86c-32 36 -59 78 -59 129c0 12 2 24 5 37c17 67 79 121 141 166c66 47 139 86 211 86zM992 870h114l-201 -266h-84zM448 404c-47 0 -95 -24 -138 -55
c-41 -29 -81 -64 -92 -107c-2 -8 -3 -16 -3 -24c0 -33 18 -60 39 -83c28 -31 63 -55 110 -55s95 24 138 55c41 29 81 64 92 107c3 8 3 16 3 23c0 33 -18 61 -39 84c-28 31 -63 55 -110 55z" />
    <glyph glyph-name="Ecaron" unicode="&#x11a;" horiz-adv-x="651" 
d="M98 0l213 820h504l-23 -90h-405l-102 -390h356l-23 -90h-356l-42 -160h405l-23 -90h-504zM654 1046h84l-161 -164h-113l-75 164h84l64 -102z" />
    <glyph glyph-name="Udieresis" unicode="&#xdc;" horiz-adv-x="832" 
d="M951 820l-140 -540c-20 -77 -89 -139 -160 -191c-74 -54 -157 -99 -238 -99s-141 45 -187 99c-35 42 -65 90 -65 147c0 14 2 29 6 44l140 540h99l-140 -540c-3 -10 -4 -20 -4 -30c0 -40 20 -73 45 -102c32 -37 74 -68 130 -68s113 31 164 68c49 36 97 79 111 132l140 540
h99zM458 871c-28 0 -51 28 -51 56c0 25 18 41 35 55c15 12 33 22 50 22c27 0 51 -27 51 -55c0 -25 -18 -42 -35 -56c-15 -12 -33 -22 -50 -22zM710 871c-28 0 -51 28 -51 56c0 25 18 41 35 55c15 12 33 22 50 22c27 0 51 -27 51 -55c0 -25 -18 -42 -35 -56
c-15 -12 -33 -22 -50 -22z" />
    <glyph glyph-name="Zcaron" unicode="&#x17d;" horiz-adv-x="714" 
d="M225 730l23 90h644l-7 -29l-650 -701h467l-23 -90h-644l8 29l650 701h-468zM661 1046h83l-160 -164h-113l-75 164h84l64 -102z" />
    <glyph glyph-name="acute" unicode="&#xb4;" horiz-adv-x="280" 
d="M363 820h114l-194 -164h-85z" />
    <glyph glyph-name="uni1E9E" unicode="&#x1e9e;" horiz-adv-x="1358" 
d="M112 182l100 34v-7c0 -33 22 -58 46 -79c32 -29 72 -50 121 -50c50 0 101 19 149 48c41 25 82 58 93 100c2 9 3 18 3 27c0 44 -30 77 -74 87l-167 54c-83 19 -146 78 -146 158c0 14 2 29 6 44c16 63 70 115 129 156c63 44 134 76 202 76c67 0 118 -35 158 -79
c27 -30 51 -64 56 -105l-101 -34c0 2 1 4 1 6c0 29 -18 54 -37 74c-26 27 -58 48 -100 48c-43 0 -88 -20 -128 -47c-37 -25 -71 -56 -81 -95c-2 -8 -3 -16 -3 -23c0 -46 39 -78 87 -89l167 -54c79 -18 133 -78 133 -156c0 -15 -2 -31 -6 -48c-17 -66 -78 -119 -141 -160
c-71 -46 -148 -78 -223 -78c-74 0 -133 35 -179 81c-31 31 -60 67 -65 111zM747 182l100 34v-7c0 -33 22 -58 46 -79c32 -29 72 -50 121 -50c50 0 101 19 149 48c41 25 81 58 92 100c2 9 4 18 4 27c0 44 -30 77 -74 87l-168 54c-83 19 -145 78 -145 158c0 14 2 29 6 44
c16 63 70 115 129 156c63 44 134 76 202 76c67 0 118 -35 158 -79c27 -30 50 -64 55 -105l-100 -34v6c0 29 -17 54 -36 74c-26 27 -59 48 -101 48c-43 0 -87 -20 -127 -47c-37 -25 -71 -56 -81 -95c-2 -8 -3 -16 -3 -23c0 -46 39 -78 87 -89l167 -54
c79 -18 133 -78 133 -156c0 -15 -3 -31 -7 -48c-17 -66 -77 -119 -140 -160c-71 -46 -149 -78 -224 -78c-74 0 -132 35 -178 81c-31 31 -60 67 -65 111z" />
    <glyph glyph-name="Uhungarumlaut" unicode="&#x170;" horiz-adv-x="832" 
d="M951 820l-140 -540c-20 -77 -89 -139 -160 -191c-74 -54 -157 -99 -238 -99s-141 45 -187 99c-35 42 -65 90 -65 147c0 14 2 29 6 44l140 540h99l-140 -540c-3 -10 -4 -20 -4 -30c0 -40 20 -73 45 -102c32 -37 74 -68 130 -68s113 31 164 68c49 36 97 79 111 132l140 540
h99zM419 882l154 164h112l-184 -164h-82zM783 1046h112l-184 -164h-82z" />
    <glyph glyph-name="Atilde" unicode="&#xc3;" horiz-adv-x="777" 
d="M14 0l573 820h29l147 -820h-101l-21 120h-431l-84 -120h-112zM506 920c-22 0 -60 -15 -65 -34h-79c8 31 37 55 66 75c31 22 66 39 99 39c43 0 77 -22 120 -22c22 0 60 16 65 35h79c-8 -31 -36 -56 -65 -76c-31 -22 -67 -39 -100 -39c-43 0 -77 22 -120 22zM625 210
l-72 400l-280 -400h352z" />
    <glyph glyph-name="Dcaron" unicode="&#x10e;" horiz-adv-x="882" 
d="M98 0l213 820h280c110 0 189 -63 250 -139c47 -59 86 -128 86 -207c0 -21 -2 -42 -8 -64c-28 -107 -121 -197 -218 -271c-100 -76 -213 -139 -323 -139h-280zM682 1046h84l-161 -164h-113l-75 164h83l65 -102zM220 90h181c85 0 173 50 250 109c76 58 147 128 169 211
c5 17 6 34 6 50c0 62 -30 115 -66 161c-47 59 -108 109 -193 109h-180z" />
    <glyph glyph-name="equal" unicode="=" horiz-adv-x="686" 
d="M132 294l24 90h574l-24 -90h-574zM82 100l23 90h574l-23 -90h-574z" />
    <glyph glyph-name="C" unicode="C" horiz-adv-x="945" 
d="M970 297c-42 -61 -102 -116 -164 -164c-98 -77 -210 -143 -319 -143s-186 66 -244 143c-45 60 -82 129 -82 209c0 22 3 45 9 68c28 109 120 201 217 277c98 77 210 143 319 143s186 -66 244 -143c37 -48 68 -103 79 -164l-98 -38c-5 54 -30 101 -61 143
c-44 60 -103 112 -188 112s-170 -52 -245 -112c-76 -60 -146 -133 -168 -218c-5 -19 -7 -36 -7 -54c0 -62 27 -117 61 -164c44 -60 103 -112 188 -112s170 52 245 112c52 42 103 89 136 143z" />
    <glyph glyph-name="Eth" unicode="&#xd0;" horiz-adv-x="938" 
d="M647 820c110 0 189 -63 250 -139c47 -59 86 -128 86 -207c0 -21 -2 -42 -8 -64c-28 -107 -121 -197 -218 -271c-100 -76 -213 -139 -323 -139h-280l95 365h-105l23 90h105l95 365h280zM276 90h181c85 0 173 50 250 109c76 58 147 128 169 211c5 17 6 34 6 50
c0 62 -30 115 -66 161c-47 59 -108 109 -193 109h-180l-72 -275h258l-23 -90h-258z" />
    <glyph glyph-name="edieresis" unicode="&#xeb;" horiz-adv-x="693" 
d="M667 150c-27 -33 -67 -61 -106 -85c-68 -43 -143 -75 -214 -75c-73 0 -128 38 -171 86c-33 36 -62 79 -62 130c0 12 2 23 5 36c18 68 80 122 143 166c68 48 143 86 216 86s129 -38 172 -86c33 -36 62 -79 62 -130c0 -12 -2 -23 -5 -36l-12 -45h-100zM427 697
c26 0 50 -29 50 -56c0 -25 -18 -41 -35 -55c-15 -12 -33 -23 -50 -23s-29 11 -38 23c-7 10 -13 20 -13 33c0 25 18 41 35 55c15 12 34 23 51 23zM679 697c26 0 50 -29 50 -56c0 -25 -18 -41 -35 -55c-15 -12 -33 -23 -50 -23s-29 11 -38 23c-7 10 -13 20 -13 33
c0 25 18 41 35 55c15 12 34 23 51 23zM371 80c46 0 95 18 140 44c34 19 69 42 84 73h-377c6 -24 21 -44 38 -62c29 -31 67 -55 115 -55zM608 287c-6 24 -22 44 -39 62c-29 31 -66 55 -114 55s-98 -24 -143 -55c-26 -18 -52 -38 -71 -62h367z" />
    <glyph glyph-name="ccaron" unicode="&#x10d;" horiz-adv-x="675" 
d="M682 187c-28 -43 -73 -79 -118 -111c-68 -48 -144 -86 -217 -86s-128 38 -171 86c-33 36 -62 79 -62 130c0 12 2 23 5 36c18 68 80 122 143 166c68 48 143 86 216 86s129 -38 172 -86c29 -32 54 -68 60 -111l-99 -36c1 35 -19 64 -42 88c-29 31 -66 55 -114 55
s-98 -24 -143 -55c-41 -28 -83 -63 -94 -107c-2 -8 -3 -16 -3 -23c0 -33 19 -61 41 -84c29 -31 67 -55 115 -55s98 24 143 55c35 24 70 53 87 88zM654 738h84l-161 -164h-113l-75 164h84l64 -101z" />
    <glyph glyph-name="cacute" unicode="&#x107;" horiz-adv-x="675" 
d="M682 187c-28 -43 -73 -79 -118 -111c-68 -48 -144 -86 -217 -86s-128 38 -171 86c-33 36 -62 79 -62 130c0 12 2 23 5 36c18 68 80 122 143 166c68 48 143 86 216 86s129 -38 172 -86c29 -32 54 -68 60 -111l-99 -36c1 35 -19 64 -42 88c-29 31 -66 55 -114 55
s-98 -24 -143 -55c-41 -28 -83 -63 -94 -107c-2 -8 -3 -16 -3 -23c0 -33 19 -61 41 -84c29 -31 67 -55 115 -55s98 24 143 55c35 24 70 53 87 88zM622 738h114l-194 -164h-85z" />
    <glyph glyph-name="odieresis" unicode="&#xf6;" horiz-adv-x="700" 
d="M427 697c26 0 50 -29 50 -56c0 -25 -18 -41 -35 -55c-15 -12 -33 -23 -50 -23s-29 11 -38 23c-7 10 -13 20 -13 33c0 25 18 41 35 55c15 12 34 23 51 23zM679 697c26 0 50 -29 50 -56c0 -25 -18 -41 -35 -55c-15 -12 -33 -23 -50 -23s-29 11 -38 23c-7 10 -13 20 -13 33
c0 25 18 41 35 55c15 12 34 23 51 23zM455 404c-48 0 -98 -24 -143 -55c-41 -28 -83 -63 -94 -107c-2 -8 -3 -16 -3 -23c0 -33 19 -61 41 -84c29 -31 67 -55 115 -55s98 24 143 55c41 28 83 63 94 107c2 8 3 16 3 23c0 33 -20 61 -42 84c-29 31 -66 55 -114 55zM478 494
c73 0 129 -38 172 -86c33 -36 62 -79 62 -130c0 -12 -2 -23 -5 -36c-18 -68 -80 -122 -143 -166c-68 -48 -144 -86 -217 -86s-128 38 -171 86c-33 36 -62 79 -62 130c0 12 2 23 5 36c18 68 80 122 143 166c68 48 143 86 216 86z" />
    <glyph glyph-name="four" unicode="4" horiz-adv-x="693" 
d="M581 201l-52 -201h-99l52 201h-383l7 29l607 590h29l-137 -529h117l-23 -90h-118zM506 291l69 266l-274 -266h205z" />
    <glyph glyph-name="adieresis" unicode="&#xe4;" horiz-adv-x="658" 
d="M394 304c60 0 109 -34 142 -71l18 71c1 4 2 8 2 12c0 24 -20 40 -39 54c-27 20 -59 34 -97 34s-77 -14 -114 -34c-30 -16 -63 -36 -72 -65l-76 44c24 32 62 58 98 80c60 37 125 65 187 65s114 -28 155 -65c30 -27 58 -59 58 -101c0 -8 -1 -15 -3 -24l-79 -304h-99l16 61
c-49 -35 -119 -71 -179 -71c-61 0 -113 21 -157 53c-31 22 -63 48 -63 86c0 6 0 12 2 18c13 48 66 77 115 103c60 32 124 54 185 54zM392 697c26 0 50 -29 50 -56c0 -25 -18 -41 -35 -55c-15 -12 -33 -23 -50 -23s-29 11 -38 23c-7 10 -13 20 -13 33c0 25 18 41 35 55
c15 12 34 23 51 23zM644 697c26 0 50 -29 50 -56c0 -25 -18 -41 -35 -55c-15 -12 -33 -23 -50 -23s-29 11 -38 23c-7 10 -13 20 -13 33c0 25 18 41 35 55c15 12 34 23 51 23zM371 214c-36 0 -75 -9 -112 -23c-27 -10 -67 -23 -67 -50c0 -18 24 -29 44 -38
c30 -14 64 -23 100 -23s74 9 111 23c27 10 67 23 67 50c0 18 -24 29 -44 38c-30 14 -63 23 -99 23z" />
    <glyph glyph-name="Ydieresis" unicode="&#x178;" horiz-adv-x="728" 
d="M220 820h102l123 -476l371 476h118l-461 -593l-59 -227h-100l60 227zM406 871c-27 0 -51 29 -51 56c0 25 18 41 35 55c15 12 34 22 51 22c27 0 50 -28 50 -55c0 -25 -18 -42 -35 -56c-15 -12 -33 -22 -50 -22zM658 871c-27 0 -51 29 -51 56c0 25 18 41 35 55
c15 12 34 22 51 22c27 0 50 -28 50 -55c0 -25 -18 -42 -35 -56c-15 -12 -33 -22 -50 -22z" />
    <glyph glyph-name="Thorn" unicode="&#xde;" horiz-adv-x="728" 
d="M98 0l213 820h99l-31 -119h169c77 0 134 -44 177 -97c33 -41 61 -88 61 -144c0 -14 -2 -28 -6 -43c-19 -75 -84 -137 -152 -188c-70 -53 -150 -97 -227 -97h-170l-34 -132h-99zM356 611l-101 -389h169c52 0 106 30 154 66c46 35 90 78 103 129c3 10 4 20 4 30
c0 38 -19 70 -41 98c-29 36 -67 66 -119 66h-169z" />
    <glyph glyph-name="cedilla" unicode="&#xb8;" horiz-adv-x="280" 
d="M113 36h73l-44 -91c34 -4 62 -22 84 -45c19 -20 37 -43 37 -72c0 -6 -1 -11 -3 -18c-10 -37 -45 -67 -81 -91c-39 -26 -82 -46 -124 -46s-74 20 -100 46c-19 19 -36 42 -37 69l82 22c-1 -3 -1 -6 -1 -9c0 -14 10 -25 21 -34c14 -13 32 -22 54 -22s44 9 65 22
c19 12 43 26 43 51c0 14 -10 25 -21 34c-14 13 -32 22 -54 22h-73z" />
    <glyph glyph-name="p" unicode="p" horiz-adv-x="714" 
d="M368 -10c-76 0 -127 63 -156 122l-107 -412h-99l204 784h99l-29 -113c54 53 141 123 219 123c72 0 126 -39 168 -86c32 -36 59 -78 59 -129c0 -12 -2 -24 -5 -37c-17 -67 -79 -121 -141 -166c-66 -47 -140 -86 -212 -86zM476 404c-47 0 -95 -24 -138 -55
c-41 -29 -81 -64 -92 -107c-2 -8 -3 -16 -3 -24c0 -33 18 -60 39 -83c28 -31 63 -55 110 -55s95 24 138 55c41 29 81 64 92 107c2 8 3 15 3 23c0 33 -18 61 -39 84c-28 31 -63 55 -110 55z" />
    <glyph glyph-name="semicolon" unicode=";" horiz-adv-x="336" 
d="M135 97h129l-204 -242h-96zM267 355c-25 0 -49 28 -49 54c0 24 17 40 34 53c15 12 31 22 48 22c25 0 49 -28 49 -54c0 -24 -17 -40 -34 -53c-15 -12 -31 -22 -48 -22z" />
    <glyph glyph-name="Idieresis" unicode="&#xcf;" horiz-adv-x="323" 
d="M112 0l213 820h99l-213 -820h-99zM203 871c-27 0 -51 29 -51 56c0 25 19 41 36 55c15 12 33 22 50 22s29 -10 38 -22c7 -10 13 -20 13 -33c0 -25 -19 -42 -36 -56c-15 -12 -33 -22 -50 -22zM455 871c-27 0 -51 29 -51 56c0 25 19 41 36 55c15 12 33 22 50 22
s29 -10 38 -22c7 -10 13 -20 13 -33c0 -25 -19 -42 -36 -56c-15 -12 -33 -22 -50 -22z" />
    <glyph glyph-name="U" unicode="U" horiz-adv-x="832" 
d="M951 820l-140 -540c-20 -77 -89 -139 -160 -191c-74 -54 -157 -99 -238 -99s-141 45 -187 99c-35 42 -65 90 -65 147c0 14 2 29 6 44l140 540h99l-140 -540c-3 -10 -4 -20 -4 -30c0 -40 20 -73 45 -102c32 -37 74 -68 130 -68s113 31 164 68c49 36 97 79 111 132l140 540
h99z" />
    <glyph glyph-name="Agrave" unicode="&#xc0;" horiz-adv-x="777" 
d="M14 0l573 820h29l147 -820h-101l-21 120h-431l-84 -120h-112zM429 1046h114l79 -164h-84zM625 210l-72 400l-280 -400h352z" />
    <glyph glyph-name="dollar" unicode="$" horiz-adv-x="728" 
d="M112 182l100 35v-8c0 -33 23 -58 47 -79c33 -29 73 -50 122 -50c50 0 103 19 151 48c41 25 82 58 93 100c2 9 4 18 4 27c0 44 -30 77 -75 87l-169 54c-85 18 -148 77 -148 158c0 14 2 29 6 44c16 63 71 115 130 156c48 33 100 60 152 71l42 159h99l-42 -160
c45 -12 82 -40 112 -73c27 -30 51 -64 56 -105l-100 -35v6c0 30 -17 55 -37 75c-26 27 -59 48 -102 48s-88 -20 -129 -47c-37 -25 -72 -56 -82 -95c-2 -8 -3 -17 -3 -24c0 -46 39 -77 88 -88l169 -54c81 -17 135 -77 135 -156c0 -15 -3 -31 -7 -48
c-17 -66 -78 -119 -141 -160c-55 -36 -115 -63 -174 -73l-42 -159h-99l42 159c-52 11 -96 41 -132 76c-31 31 -61 67 -66 111z" />
    <glyph glyph-name="ncaron" unicode="&#x148;" 
d="M285 392c54 46 137 102 210 102c56 0 96 -33 127 -72c24 -30 44 -65 44 -106c0 -11 -2 -22 -5 -33l-73 -283h-99l73 283c2 7 3 13 3 19c0 23 -10 44 -23 61c-17 22 -39 41 -70 41c-44 0 -89 -17 -132 -41c-36 -20 -75 -44 -84 -80l-73 -283h-99l126 484h99zM640 738h84
l-161 -164h-113l-75 164h84l64 -101z" />
    <glyph glyph-name="Ograve" unicode="&#xd2;" horiz-adv-x="980" 
d="M531 1046h114l79 -164h-85zM682 740c-85 0 -170 -52 -245 -112c-76 -60 -146 -133 -168 -218c-5 -19 -7 -36 -7 -54c0 -62 27 -117 61 -164c44 -60 103 -112 188 -112s170 52 245 112c76 60 147 133 169 218c5 19 7 36 7 54c0 62 -28 117 -62 164
c-44 60 -103 112 -188 112zM706 830c109 0 186 -66 244 -143c45 -60 82 -129 82 -209c0 -22 -2 -45 -8 -68c-28 -109 -121 -201 -218 -277c-98 -77 -210 -143 -319 -143s-186 66 -244 143c-45 60 -82 129 -82 209c0 22 3 45 9 68c28 109 120 201 217 277
c98 77 210 143 319 143z" />
    <glyph glyph-name="Icircumflex" unicode="&#xce;" horiz-adv-x="323" 
d="M112 0l213 820h99l-213 -820h-99zM358 983l-117 -101h-83l160 164h113l75 -164h-83z" />
    <glyph glyph-name="e" unicode="e" horiz-adv-x="693" 
d="M667 150c-27 -33 -67 -61 -106 -85c-68 -43 -143 -75 -214 -75c-73 0 -128 38 -171 86c-33 36 -62 79 -62 130c0 12 2 23 5 36c18 68 80 122 143 166c68 48 143 86 216 86s129 -38 172 -86c33 -36 62 -79 62 -130c0 -12 -2 -23 -5 -36l-12 -45h-100zM371 80
c46 0 95 18 140 44c34 19 69 42 84 73h-377c6 -24 21 -44 38 -62c29 -31 67 -55 115 -55zM608 287c-6 24 -22 44 -39 62c-29 31 -66 55 -114 55s-98 -24 -143 -55c-26 -18 -52 -38 -71 -62h367z" />
    <glyph glyph-name="breve" unicode="&#x2d8;" horiz-adv-x="294" 
d="M555 809c-11 -42 -52 -74 -93 -100c-46 -29 -96 -52 -144 -52s-86 23 -117 52c-23 22 -44 47 -44 79c0 6 0 14 2 21h79c-1 -3 -1 -6 -1 -9c0 -17 16 -29 30 -39c20 -14 44 -24 72 -24s56 10 84 24c22 12 47 26 53 48h79z" />
    <glyph glyph-name="ampersand" unicode="&#x26;" horiz-adv-x="868" 
d="M829 652l-99 -39c2 32 -19 58 -40 79c-28 27 -62 48 -106 48s-90 -21 -132 -48c-38 -25 -76 -55 -86 -94c-2 -7 -2 -14 -2 -20c0 -30 18 -55 39 -75c28 -27 63 -48 107 -48h424l-24 -90h-144l-95 -365h-279c-69 0 -123 34 -165 77c-32 33 -60 72 -60 119c0 10 1 21 4 32
c16 62 75 110 134 150c29 19 59 37 90 50c-24 11 -46 26 -66 43c-33 27 -65 60 -65 103c0 8 1 16 3 24c16 63 76 112 135 153c65 44 136 79 205 79s122 -35 164 -79c27 -28 51 -61 58 -99zM667 365h-181c-44 0 -89 -20 -131 -47c-37 -24 -75 -52 -85 -90
c-2 -6 -2 -13 -2 -19c0 -30 19 -52 40 -72c28 -27 63 -47 107 -47h180z" />
    <glyph glyph-name="d" unicode="d" horiz-adv-x="721" 
d="M471 494c76 0 128 -64 157 -123l129 499h99l-226 -870h-99l29 112c-54 -53 -142 -122 -220 -122c-72 0 -125 39 -167 86c-32 36 -59 78 -59 129c0 12 2 24 5 37c17 67 79 121 141 166c66 47 139 86 211 86zM448 404c-47 0 -95 -24 -138 -55c-41 -29 -81 -64 -92 -107
c-2 -8 -3 -16 -3 -24c0 -33 18 -60 39 -83c28 -31 63 -55 110 -55s95 24 138 55c41 29 81 64 92 107c3 8 3 16 3 23c0 33 -18 61 -39 84c-28 31 -63 55 -110 55z" />
    <glyph glyph-name="dotlessi" unicode="&#x131;" horiz-adv-x="266" 
d="M84 0l125 484h99l-126 -484h-98z" />
    <glyph glyph-name="Oslash" unicode="&#xd8;" horiz-adv-x="980" 
d="M682 740c-85 0 -170 -52 -245 -112c-76 -60 -146 -133 -168 -218c-5 -19 -7 -36 -7 -54c0 -49 17 -94 41 -134l535 444c-40 42 -90 74 -156 74zM706 830c88 0 156 -43 209 -100l108 90h135l-190 -158c37 -54 64 -115 64 -184c0 -22 -2 -45 -8 -68
c-28 -109 -121 -201 -218 -277c-98 -77 -210 -143 -319 -143c-88 0 -156 43 -209 100l-108 -90h-135l190 158c-37 54 -64 115 -64 184c0 22 3 45 9 68c28 109 120 201 217 277c98 77 210 143 319 143zM355 154c40 -42 90 -74 156 -74c85 0 170 52 245 112
c76 60 147 133 169 218c5 19 7 36 7 54c0 49 -18 94 -42 134z" />
    <glyph glyph-name="Acircumflex" unicode="&#xc2;" horiz-adv-x="777" 
d="M14 0l573 820h29l147 -820h-101l-21 120h-431l-84 -120h-112zM625 210l-72 400l-280 -400h352zM585 983l-117 -101h-83l160 164h113l75 -164h-83z" />
    <glyph glyph-name="w" unicode="w" horiz-adv-x="903" 
d="M133 484h104l99 -314l144 171l-46 143h104l17 -53l44 53h121l-132 -158l50 -156l263 314h121l-405 -484h-29l-75 236l-198 -236h-29z" />
    <glyph glyph-name="braceright" unicode="}" horiz-adv-x="427" 
d="M331 286c-26 31 -52 76 -52 124c0 12 2 24 5 37l41 161c2 7 3 13 3 19c0 45 -41 83 -77 115c-28 25 -58 50 -93 65l56 80c43 -22 80 -56 114 -89c47 -46 100 -97 100 -161c0 -10 -1 -19 -4 -29l-41 -161c-2 -7 -3 -14 -3 -21c0 -20 7 -37 17 -53c12 -20 28 -37 54 -37
l-26 -100c-26 0 -52 -17 -74 -37c-24 -21 -45 -46 -52 -74l-42 -161c-20 -77 -115 -137 -196 -190c-51 -33 -105 -67 -159 -89l-15 80c43 15 86 40 127 65c60 37 130 80 144 134l42 161c16 63 76 121 131 161z" />
    <glyph glyph-name="nacute" unicode="&#x144;" 
d="M285 392c54 46 137 102 210 102c56 0 96 -33 127 -72c24 -30 44 -65 44 -106c0 -11 -2 -22 -5 -33l-73 -283h-99l73 283c2 7 3 13 3 19c0 23 -10 44 -23 61c-17 22 -39 41 -70 41c-44 0 -89 -17 -132 -41c-36 -20 -75 -44 -84 -80l-73 -283h-99l126 484h99zM608 738h114
l-194 -164h-85z" />
    <glyph glyph-name="lslash" unicode="&#x142;" horiz-adv-x="322" 
d="M243 504l95 366h99l-78 -301l97 55l-31 -117l-97 -54l-118 -453h-98l100 388l-97 -55l30 117z" />
    <glyph glyph-name="Ccaron" unicode="&#x10c;" horiz-adv-x="945" 
d="M970 297c-42 -61 -102 -116 -164 -164c-98 -77 -210 -143 -319 -143s-186 66 -244 143c-45 60 -82 129 -82 209c0 22 3 45 9 68c28 109 120 201 217 277c98 77 210 143 319 143s186 -66 244 -143c37 -48 68 -103 79 -164l-98 -38c-5 54 -30 101 -61 143
c-44 60 -103 112 -188 112s-170 -52 -245 -112c-76 -60 -146 -133 -168 -218c-5 -19 -7 -36 -7 -54c0 -62 27 -117 61 -164c44 -60 103 -112 188 -112s170 52 245 112c52 42 103 89 136 143zM794 1046h84l-161 -164h-113l-75 164h84l64 -102z" />
    <glyph glyph-name="Uacute" unicode="&#xda;" horiz-adv-x="832" 
d="M951 820l-140 -540c-20 -77 -89 -139 -160 -191c-74 -54 -157 -99 -238 -99s-141 45 -187 99c-35 42 -65 90 -65 147c0 14 2 29 6 44l140 540h99l-140 -540c-3 -10 -4 -20 -4 -30c0 -40 20 -73 45 -102c32 -37 74 -68 130 -68s113 31 164 68c49 36 97 79 111 132l140 540
h99zM687 1046h115l-194 -164h-85z" />
    <glyph glyph-name="v" unicode="v" horiz-adv-x="588" 
d="M133 484h103l92 -304l251 304h128l-399 -484h-28z" />
    <glyph glyph-name="E" unicode="E" horiz-adv-x="651" 
d="M98 0l213 820h504l-23 -90h-405l-102 -390h356l-23 -90h-356l-42 -160h405l-23 -90h-504z" />
    <glyph glyph-name="B" unicode="B" horiz-adv-x="735" 
d="M98 0l213 820h287c65 0 105 -45 135 -94c24 -39 42 -83 42 -132c0 -17 -2 -34 -7 -52c-16 -61 -68 -113 -123 -156c-23 -18 -47 -34 -72 -48c28 -11 54 -26 78 -43c34 -25 70 -55 70 -97c0 -7 -1 -14 -3 -21c-14 -54 -73 -88 -128 -117c-67 -36 -137 -60 -205 -60h-287z
M387 730l-98 -375h188c40 0 78 32 111 64c37 36 69 77 81 123c4 14 5 27 5 40c0 30 -8 59 -21 84c-16 32 -38 64 -78 64h-188zM266 265l-46 -175h188c43 0 88 12 132 30c33 14 80 31 80 66c0 23 -27 37 -50 49c-34 18 -73 30 -116 30h-188z" />
    <glyph glyph-name="s" unicode="s" horiz-adv-x="560" 
d="M76 122l102 19c0 -2 -1 -4 -1 -6c0 -16 20 -26 37 -34c26 -13 55 -21 87 -21s66 7 99 20c26 10 57 21 57 50c0 20 -19 33 -43 33l-122 32c-74 1 -132 40 -132 102c0 9 0 18 3 28c11 42 53 75 94 100c48 29 101 49 151 49s91 -22 124 -51c24 -21 47 -46 47 -78l-102 -20
c1 2 1 5 1 7c0 15 -14 24 -27 32c-19 12 -41 20 -66 20s-52 -7 -77 -19c-21 -10 -47 -22 -47 -48c0 -22 27 -32 56 -32l122 -32c69 -1 120 -42 120 -102c0 -10 -1 -20 -4 -30c-12 -45 -60 -77 -105 -102c-56 -31 -116 -49 -173 -49c-56 0 -103 21 -143 51
c-28 21 -57 46 -58 81z" />
    <glyph glyph-name="OE" unicode="&#x152;" horiz-adv-x="1176" 
d="M630 740c-75 0 -148 -54 -211 -112c-69 -63 -129 -136 -150 -218c-6 -22 -9 -43 -9 -64c0 -56 20 -108 46 -154c33 -58 78 -112 153 -112s148 54 211 112c69 63 129 136 150 218c7 21 8 44 8 64c0 56 -19 108 -45 154c-33 58 -78 112 -153 112zM757 166
c-86 -81 -208 -176 -322 -176c-100 0 -163 68 -210 143c-37 59 -65 127 -65 201c0 25 3 50 10 76c27 105 108 198 199 277c86 75 185 143 285 143c113 0 183 -90 229 -176l44 166h413l-23 -90h-315c-34 -130 -67 -260 -101 -390h265l-23 -90h-265l-42 -160h314l-23 -90h-414
z" />
    <glyph glyph-name="caron" unicode="&#x2c7;" horiz-adv-x="294" 
d="M451 820h84l-161 -164h-113l-75 164h84l64 -101z" />
    <glyph glyph-name="eth" unicode="&#xf0;" horiz-adv-x="735" 
d="M489 494c76 0 129 -56 163 -111c1 14 1 29 1 43c0 85 -16 166 -48 238l-221 -62l26 101l150 42c-33 48 -74 90 -123 125h161c27 -29 51 -61 71 -95l207 58l-26 -100l-140 -40c30 -75 45 -158 45 -245c0 -67 -9 -136 -27 -206c-18 -68 -82 -122 -147 -166
c-70 -48 -148 -86 -223 -86s-134 38 -179 86c-34 36 -65 79 -65 131c0 11 2 23 5 35c18 68 82 122 147 166c70 48 148 86 223 86zM629 242c2 8 3 15 3 22c0 34 -22 62 -45 85c-31 31 -72 55 -122 55s-101 -24 -149 -55c-43 -28 -86 -62 -98 -107c-2 -8 -3 -15 -3 -22
c0 -34 22 -62 45 -85c31 -31 71 -55 121 -55s102 24 150 55c43 28 86 62 98 107z" />
    <glyph glyph-name="Rcaron" unicode="&#x158;" horiz-adv-x="707" 
d="M98 0l213 820h268c78 0 134 -47 176 -102c33 -43 59 -92 59 -149c0 -16 -3 -32 -7 -49c-25 -96 -123 -179 -208 -235l101 -285h-107l-82 238c-29 -11 -58 -17 -87 -17h-170l-57 -221h-99zM626 1046h84l-161 -164h-113l-75 164h83l65 -102zM387 730l-109 -419h169
c53 0 107 33 155 71s92 84 106 138c3 12 5 24 5 35c0 39 -17 74 -39 104c-28 38 -65 71 -118 71h-169z" />
    <glyph glyph-name="zacute" unicode="&#x17a;" horiz-adv-x="518" 
d="M137 394l24 90h448l-8 -29l-353 -365h258l-23 -90h-448l8 29l353 365h-259zM531 738h114l-194 -164h-85z" />
    <glyph glyph-name="uring" unicode="&#x16f;" 
d="M504 83c-46 -43 -116 -93 -178 -93s-110 32 -147 72c-28 30 -54 66 -54 109c0 10 1 20 4 30l74 283h99l-74 -283c-1 -6 -2 -11 -2 -16c0 -26 17 -47 34 -64c23 -23 53 -41 90 -41s76 18 111 41c32 21 64 47 73 80l74 283h99l-126 -484h-99zM534 708c-15 0 -31 -8 -45 -18
s-31 -22 -31 -42c0 -11 6 -20 13 -27c9 -10 21 -17 36 -17s32 7 46 17s30 22 30 42c0 11 -6 20 -13 27c-9 10 -21 18 -36 18zM550 768c32 0 56 -17 74 -38c14 -16 27 -36 27 -58c0 -5 -2 -10 -3 -16c-8 -30 -34 -54 -62 -74c-29 -21 -62 -38 -94 -38s-56 17 -74 38
c-14 16 -27 35 -27 57c0 5 1 11 2 17c8 30 35 54 63 74c29 21 62 38 94 38z" />
    <glyph glyph-name="I" unicode="I" horiz-adv-x="323" 
d="M112 0l213 820h99l-213 -820h-99z" />
    <glyph glyph-name="ntilde" unicode="&#xf1;" 
d="M285 392c54 46 137 102 210 102c56 0 96 -33 127 -72c24 -30 44 -65 44 -106c0 -11 -2 -22 -5 -33l-73 -283h-99l73 283c2 7 3 13 3 19c0 23 -10 44 -23 61c-17 22 -39 41 -70 41c-44 0 -89 -17 -132 -41c-36 -20 -75 -44 -84 -80l-73 -283h-99l126 484h99zM454 613
c-22 0 -60 -16 -65 -35h-79c8 31 36 56 65 76c31 22 66 39 99 39c43 0 78 -23 121 -23c22 0 59 16 64 35h80c-8 -31 -37 -56 -66 -76c-31 -22 -66 -39 -99 -39c-43 0 -77 23 -120 23z" />
    <glyph glyph-name="Uring" unicode="&#x16e;" horiz-adv-x="832" 
d="M951 820l-140 -540c-20 -77 -89 -139 -160 -191c-74 -54 -157 -99 -238 -99s-141 45 -187 99c-35 42 -65 90 -65 147c0 14 2 29 6 44l140 540h99l-140 -540c-3 -10 -4 -20 -4 -30c0 -40 20 -73 45 -102c32 -37 74 -68 130 -68s113 31 164 68c49 36 97 79 111 132l140 540
h99zM621 1016c-15 0 -31 -8 -45 -18s-31 -22 -31 -42c0 -11 6 -20 13 -27c9 -10 21 -17 36 -17s31 7 45 17s31 22 31 42c0 11 -6 20 -13 27c-9 10 -21 18 -36 18zM637 1076c32 0 56 -18 74 -39c14 -16 26 -35 26 -57c0 -5 -1 -10 -2 -16c-8 -30 -34 -54 -62 -74
c-29 -21 -62 -38 -94 -38s-57 17 -75 38c-14 16 -26 35 -26 57c0 5 1 11 2 17c8 30 35 53 63 73c29 21 62 39 94 39z" />
    <glyph glyph-name="tcedilla" unicode="&#x163;" horiz-adv-x="378" 
d="M114 394l23 90h128l101 386h99l-101 -386h128l-23 -90h-128l-103 -394h-20l-27 -55c34 -4 62 -22 84 -45c19 -20 37 -43 37 -72c0 -6 -1 -11 -3 -18c-10 -37 -45 -67 -81 -91c-39 -26 -82 -46 -124 -46s-74 20 -100 46c-19 19 -36 42 -37 69l82 22c-1 -3 -1 -6 -1 -9
c0 -14 10 -25 21 -34c14 -13 32 -22 54 -22s44 9 65 22c19 12 43 26 43 51c0 14 -10 25 -21 34c-14 13 -32 22 -54 22h-73l61 126h-4l102 394h-128z" />
    <glyph glyph-name="ucircumflex" unicode="&#xfb;" 
d="M504 83c-46 -43 -116 -93 -178 -93s-110 32 -147 72c-28 30 -54 66 -54 109c0 10 1 20 4 30l74 283h99l-74 -283c-1 -6 -2 -11 -2 -16c0 -26 17 -47 34 -64c23 -23 53 -41 90 -41s76 18 111 41c32 21 64 47 73 80l74 283h99l-126 -484h-99zM526 675l-117 -101h-84
l161 164h113l75 -164h-84z" />
    <glyph glyph-name="Egrave" unicode="&#xc8;" horiz-adv-x="651" 
d="M98 0l213 820h504l-23 -90h-405l-102 -390h356l-23 -90h-356l-42 -160h405l-23 -90h-504zM391 1046h114l79 -164h-85z" />
    <glyph glyph-name="j" unicode="j" horiz-adv-x="294" 
d="M336 484l-155 -594c-13 -50 -52 -95 -96 -132c-42 -36 -90 -68 -138 -68s-79 32 -102 68c-13 20 -24 41 -29 65l97 42c0 -17 6 -34 13 -48c9 -19 22 -37 45 -37s45 18 64 37c22 21 40 46 47 73l155 594h99zM363 697c17 0 29 -11 38 -23c7 -10 13 -20 13 -33
c0 -25 -19 -41 -36 -55c-15 -12 -33 -23 -50 -23s-29 11 -38 23c-7 10 -13 20 -13 33c0 25 19 41 36 55c15 12 33 23 50 23z" />
    <glyph glyph-name="Oacute" unicode="&#xd3;" horiz-adv-x="980" 
d="M762 1046h114l-194 -164h-85zM682 740c-85 0 -170 -52 -245 -112c-76 -60 -146 -133 -168 -218c-5 -19 -7 -36 -7 -54c0 -62 27 -117 61 -164c44 -60 103 -112 188 -112s170 52 245 112c76 60 147 133 169 218c5 19 7 36 7 54c0 62 -28 117 -62 164
c-44 60 -103 112 -188 112zM706 830c109 0 186 -66 244 -143c45 -60 82 -129 82 -209c0 -22 -2 -45 -8 -68c-28 -109 -121 -201 -218 -277c-98 -77 -210 -143 -319 -143s-186 66 -244 143c-45 60 -82 129 -82 209c0 22 3 45 9 68c28 109 120 201 217 277
c98 77 210 143 319 143z" />
    <glyph glyph-name="ae" unicode="&#xe6;" horiz-adv-x="1036" 
d="M550 91c-56 -48 -161 -101 -246 -101c-58 0 -107 22 -147 53c-29 22 -58 48 -58 85c0 6 0 12 2 19c12 47 63 77 110 103c57 31 116 54 174 54c55 0 97 -33 127 -68l18 68c1 4 2 8 2 12c0 23 -17 40 -34 54c-23 20 -52 34 -87 34s-70 -14 -104 -34
c-27 -16 -56 -36 -65 -63l-78 42c23 31 58 57 93 80c56 37 119 65 178 65s107 -28 144 -65c14 -14 28 -29 38 -46c62 52 150 111 230 111c68 0 118 -39 155 -86c29 -36 53 -78 53 -127c0 -13 -1 -26 -5 -39l-12 -45h-426c5 -23 17 -44 31 -62c23 -30 54 -55 97 -55
c41 0 84 19 123 44c30 19 60 41 74 70l74 -44c-25 -33 -62 -60 -98 -85c-62 -42 -131 -75 -197 -75c-75 0 -128 49 -166 101zM362 214c-33 0 -67 -9 -101 -23c-25 -10 -62 -23 -62 -50c0 -18 21 -29 39 -38c26 -14 56 -23 89 -23s68 9 102 23c25 10 61 23 61 50
c0 18 -20 29 -38 38c-26 14 -57 23 -90 23zM952 287c-5 23 -17 44 -31 62c-23 30 -54 55 -97 55s-87 -25 -126 -55c-24 -18 -46 -39 -63 -62h317z" />
    <glyph glyph-name="c" unicode="c" horiz-adv-x="675" 
d="M682 187c-28 -43 -73 -79 -118 -111c-68 -48 -144 -86 -217 -86s-128 38 -171 86c-33 36 -62 79 -62 130c0 12 2 23 5 36c18 68 80 122 143 166c68 48 143 86 216 86s129 -38 172 -86c29 -32 54 -68 60 -111l-99 -36c1 35 -19 64 -42 88c-29 31 -66 55 -114 55
s-98 -24 -143 -55c-41 -28 -83 -63 -94 -107c-2 -8 -3 -16 -3 -23c0 -33 19 -61 41 -84c29 -31 67 -55 115 -55s98 24 143 55c35 24 70 53 87 88z" />
    <glyph glyph-name="Lcaron" unicode="&#x13d;" horiz-adv-x="644" 
d="M98 0l213 820h99l-190 -730h405l-23 -90h-504zM628 820h114l-201 -266h-84z" />
    <glyph glyph-name="D" unicode="D" horiz-adv-x="882" 
d="M98 0l213 820h280c110 0 189 -63 250 -139c47 -59 86 -128 86 -207c0 -21 -2 -42 -8 -64c-28 -107 -121 -197 -218 -271c-100 -76 -213 -139 -323 -139h-280zM220 90h181c85 0 173 50 250 109c76 58 147 128 169 211c5 17 6 34 6 50c0 62 -30 115 -66 161
c-47 59 -108 109 -193 109h-180z" />
    <glyph glyph-name="icircumflex" unicode="&#xee;" horiz-adv-x="266" 
d="M84 0l125 484h99l-126 -484h-98zM330 675l-117 -101h-84l161 164h113l75 -164h-84z" />
    <glyph glyph-name="gbreve" unicode="&#x11f;" horiz-adv-x="714" 
d="M471 494c76 0 128 -62 157 -120l29 110h99l-135 -518c-19 -72 -80 -132 -145 -182c-66 -51 -141 -94 -214 -94s-125 43 -165 94c-14 18 -26 36 -36 56l88 55c7 -19 17 -36 29 -52c26 -34 60 -63 108 -63s97 29 140 63s84 75 96 123l40 154c-54 -53 -141 -120 -219 -120
c-71 0 -126 37 -168 84c-32 35 -59 77 -59 127c0 11 1 24 4 36c17 66 78 119 140 163c66 47 140 84 211 84zM751 726c-11 -42 -52 -74 -93 -100c-46 -29 -96 -51 -144 -51s-86 22 -117 51c-23 22 -44 48 -44 80c0 6 0 13 2 20h79c-1 -3 -1 -5 -1 -8c0 -17 16 -29 30 -39
c20 -14 44 -24 72 -24s56 10 84 24c22 12 47 25 53 47h79zM448 404c-46 0 -95 -24 -138 -54c-40 -27 -80 -60 -91 -103c-2 -8 -3 -15 -3 -22c0 -32 19 -59 40 -82c28 -30 64 -53 110 -53s95 23 138 53c40 27 80 61 91 104c2 8 3 15 3 22c0 32 -19 58 -40 81
c-28 30 -64 54 -110 54z" />
    <glyph glyph-name="ij" unicode="&#x133;" horiz-adv-x="644" 
d="M252 484h99l-126 -484h-99zM686 484l-155 -594c-14 -52 -57 -96 -104 -132c-48 -37 -101 -68 -154 -68s-91 31 -119 68c-15 19 -28 41 -35 65l96 46c1 -19 9 -37 20 -52c14 -20 33 -37 61 -37s56 17 81 37s48 45 55 73l155 594h99zM662 568c-27 0 -51 29 -51 56
c0 25 19 41 36 55c15 12 33 23 50 23s29 -11 38 -23c7 -10 13 -20 13 -33c0 -25 -19 -42 -36 -56c-15 -12 -33 -22 -50 -22zM319 568c-27 0 -51 29 -51 56c0 25 19 41 36 55c15 12 33 23 50 23s29 -11 38 -23c7 -10 13 -20 13 -33c0 -25 -19 -42 -36 -56
c-15 -12 -33 -22 -50 -22z" />
    <glyph glyph-name="n" unicode="n" 
d="M285 392c54 46 137 102 210 102c56 0 96 -33 127 -72c24 -30 44 -65 44 -106c0 -11 -2 -22 -5 -33l-73 -283h-99l73 283c2 7 3 13 3 19c0 23 -10 44 -23 61c-17 22 -39 41 -70 41c-44 0 -89 -17 -132 -41c-36 -20 -75 -44 -84 -80l-73 -283h-99l126 484h99z" />
    <glyph glyph-name="percent" unicode="%" horiz-adv-x="1148" 
d="M200 -41l827 902h134l-827 -902h-134zM496 730c-26 0 -51 -20 -73 -40c-29 -26 -56 -55 -56 -100c0 -20 7 -38 16 -54c11 -20 26 -40 52 -40s52 20 74 40c28 26 55 55 55 100c0 20 -6 38 -15 54c-11 20 -27 40 -53 40zM520 820c51 0 85 -33 110 -70
c20 -29 35 -63 35 -101c0 -12 -2 -24 -5 -36c-14 -52 -55 -99 -101 -137c-45 -37 -96 -70 -147 -70s-85 33 -110 70c-20 29 -35 63 -35 101c0 12 1 24 4 36c14 52 56 99 102 137c45 37 96 70 147 70zM926 324c-26 0 -52 -20 -74 -40c-28 -26 -55 -55 -55 -100
c0 -20 6 -38 15 -54c11 -20 27 -40 53 -40s51 20 73 40c29 26 56 55 56 100c0 20 -7 38 -16 54c-11 20 -26 40 -52 40zM949 414c51 0 85 -33 110 -70c20 -29 35 -63 35 -101c0 -12 -1 -24 -4 -36c-14 -52 -56 -99 -102 -137c-45 -37 -95 -70 -146 -70s-86 33 -111 70
c-20 29 -35 63 -35 101c0 12 2 24 5 36c14 52 55 99 101 137c45 37 96 70 147 70z" />
    <glyph glyph-name="q" unicode="q" horiz-adv-x="714" 
d="M471 494c76 0 128 -64 157 -123l29 113h99l-204 -784h-99l107 412c-54 -53 -142 -122 -220 -122c-72 0 -125 39 -167 86c-32 36 -59 78 -59 129c0 12 2 24 5 37c17 67 79 121 141 166c66 47 139 86 211 86zM448 404c-47 0 -95 -24 -138 -55c-41 -29 -81 -64 -92 -107
c-2 -8 -3 -16 -3 -24c0 -33 18 -60 39 -83c28 -31 63 -55 110 -55s95 24 138 55c42 29 79 63 92 107c2 8 3 15 3 23c0 33 -18 61 -39 84c-28 31 -63 55 -110 55z" />
    <glyph glyph-name="Racute" unicode="&#x154;" horiz-adv-x="707" 
d="M98 0l213 820h268c78 0 134 -47 176 -102c33 -43 59 -92 59 -149c0 -16 -3 -32 -7 -49c-25 -96 -123 -179 -208 -235l101 -285h-107l-82 238c-29 -11 -58 -17 -87 -17h-170l-57 -221h-99zM594 1046h114l-194 -164h-85zM387 730l-109 -419h169c53 0 107 33 155 71
s92 84 106 138c3 12 5 24 5 35c0 39 -17 74 -39 104c-28 38 -65 71 -118 71h-169z" />
    <glyph glyph-name="x" unicode="x" horiz-adv-x="567" 
d="M162 484h112l87 -150l156 150h139l-245 -237l142 -247h-112l-103 178l-184 -178h-140l275 264z" />
    <glyph glyph-name="S" unicode="S" horiz-adv-x="728" 
d="M112 182l100 35v-8c0 -33 23 -58 47 -79c33 -29 73 -50 122 -50c50 0 103 19 151 48c41 25 82 58 93 100c2 9 4 18 4 27c0 44 -30 77 -75 87l-169 54c-85 18 -148 77 -148 158c0 14 2 29 6 44c16 63 71 115 130 156c64 44 135 76 203 76s120 -35 160 -79
c27 -30 51 -64 56 -105l-100 -18c-3 25 -20 46 -37 64c-26 27 -59 48 -102 48s-88 -20 -129 -47c-37 -25 -72 -56 -82 -95c-2 -8 -3 -17 -3 -24c0 -46 39 -77 88 -88l169 -54c81 -17 135 -77 135 -156c0 -15 -3 -31 -7 -48c-17 -66 -78 -119 -141 -160
c-71 -46 -150 -78 -225 -78c-74 0 -133 35 -180 81c-31 31 -61 67 -66 111z" />
    <glyph glyph-name="A" unicode="A" horiz-adv-x="777" 
d="M14 0l573 820h29l147 -820h-101l-21 120h-431l-84 -120h-112zM625 210l-72 400l-280 -400h352z" />
    <glyph glyph-name="Y" unicode="Y" horiz-adv-x="728" 
d="M220 820h102l123 -476l371 476h118l-461 -593l-59 -227h-100l60 227z" />
    <glyph glyph-name="oslash" unicode="&#xf8;" horiz-adv-x="700" 
d="M455 404c-48 0 -98 -24 -143 -55c-41 -28 -83 -63 -94 -107c-2 -8 -3 -16 -3 -23c0 -22 8 -41 20 -58l290 224c-20 12 -44 19 -70 19zM478 494c51 0 93 -19 129 -46l45 36h146l-128 -99c24 -31 42 -67 42 -107c0 -12 -2 -23 -5 -36c-18 -68 -80 -122 -143 -166
c-68 -48 -144 -86 -217 -86c-51 0 -92 18 -128 45l-45 -35h-146l128 99c-24 31 -42 66 -42 107c0 12 2 23 5 36c18 68 80 122 143 166c68 48 143 86 216 86zM301 99c20 -12 44 -19 70 -19c48 0 98 24 143 55c41 28 83 63 94 107c2 8 3 16 3 23c0 22 -8 41 -20 58z" />
    <glyph glyph-name="dieresis" unicode="&#xa8;" horiz-adv-x="294" 
d="M224 779c26 0 50 -29 50 -56c0 -25 -18 -41 -35 -55c-15 -12 -33 -23 -50 -23s-29 11 -38 23c-7 10 -13 20 -13 33c0 25 18 41 35 55c15 12 34 23 51 23zM476 779c26 0 50 -29 50 -56c0 -25 -18 -41 -35 -55c-15 -12 -33 -23 -50 -23s-29 11 -38 23c-7 10 -13 20 -13 33
c0 25 18 41 35 55c15 12 34 23 51 23z" />
    <glyph glyph-name="o" unicode="o" horiz-adv-x="700" 
d="M455 404c-48 0 -98 -24 -143 -55c-41 -28 -83 -63 -94 -107c-2 -8 -3 -16 -3 -23c0 -33 19 -61 41 -84c29 -31 67 -55 115 -55s98 24 143 55c41 28 83 63 94 107c2 8 3 16 3 23c0 33 -20 61 -42 84c-29 31 -66 55 -114 55zM478 494c73 0 129 -38 172 -86
c33 -36 62 -79 62 -130c0 -12 -2 -23 -5 -36c-18 -68 -80 -122 -143 -166c-68 -48 -144 -86 -217 -86s-128 38 -171 86c-33 36 -62 79 -62 130c0 12 2 23 5 36c18 68 80 122 143 166c68 48 143 86 216 86z" />
    <glyph glyph-name="sacute" unicode="&#x15b;" horiz-adv-x="560" 
d="M76 122l102 19c0 -2 -1 -4 -1 -6c0 -16 20 -26 37 -34c26 -13 55 -21 87 -21s66 7 99 20c26 10 57 21 57 50c0 20 -19 33 -43 33l-122 32c-74 1 -132 40 -132 102c0 9 0 18 3 28c11 42 53 75 94 100c48 29 101 49 151 49s91 -22 124 -51c24 -21 47 -46 47 -78l-102 -20
c1 2 1 5 1 7c0 15 -14 24 -27 32c-19 12 -41 20 -66 20s-52 -7 -77 -19c-21 -10 -47 -22 -47 -48c0 -22 27 -32 56 -32l122 -32c69 -1 120 -42 120 -102c0 -10 -1 -20 -4 -30c-12 -45 -60 -77 -105 -102c-56 -31 -116 -49 -173 -49c-56 0 -103 21 -143 51
c-28 21 -57 46 -58 81zM552 738h114l-194 -164h-85z" />
    <glyph glyph-name="J" unicode="J" horiz-adv-x="616" 
d="M738 820l-150 -577c-17 -66 -75 -122 -135 -167c-62 -47 -132 -86 -200 -86s-118 39 -156 86c-29 36 -53 79 -53 128v11l102 18c-1 -5 -1 -11 -1 -16c0 -31 15 -59 33 -82c24 -30 55 -55 98 -55s88 25 127 55c38 29 75 66 86 108l150 577h99z" />
    <glyph glyph-name="dotaccent" unicode="&#x2d9;" horiz-adv-x="252" 
d="M329 779c26 0 50 -29 50 -56c0 -25 -18 -41 -35 -55c-15 -12 -33 -23 -50 -23s-29 11 -38 23c-7 10 -13 20 -13 33c0 25 18 41 35 55c15 12 34 23 51 23z" />
    <glyph glyph-name="y" unicode="y" horiz-adv-x="588" 
d="M133 484h102l84 -350l265 350h123l-596 -784h-123l253 333z" />
    <glyph glyph-name="yacute" unicode="&#xfd;" horiz-adv-x="588" 
d="M133 484h102l84 -350l265 350h123l-596 -784h-123l253 333zM566 738h114l-194 -164h-85z" />
    <glyph glyph-name="dotlessj" unicode="&#x237;" horiz-adv-x="294" 
d="M336 484l-155 -594c-13 -50 -52 -95 -96 -132c-42 -36 -90 -68 -138 -68s-79 32 -102 68c-13 20 -24 41 -29 65l97 42c0 -17 6 -34 13 -48c9 -19 22 -37 45 -37s45 18 64 37c22 21 40 46 47 73l155 594h99z" />
    <glyph glyph-name="braceleft" unicode="{" horiz-adv-x="427" 
d="M245 286c26 -31 52 -76 52 -124c0 -12 -2 -24 -5 -37l-42 -161c-2 -7 -2 -13 -2 -19c0 -45 41 -83 77 -115c24 -22 49 -43 78 -58l-60 -77c-35 21 -66 51 -95 79c-47 46 -101 97 -101 161c0 10 1 19 4 29l42 161c2 7 3 14 3 21c0 20 -7 37 -17 53c-12 20 -29 37 -55 37
l26 100c26 0 52 17 74 37c24 21 46 46 53 74l41 161h99c14 54 85 97 145 134c35 22 71 43 108 58l-20 77c-46 -21 -92 -51 -136 -79c-81 -53 -176 -113 -196 -190h99l-41 -161c-16 -63 -76 -121 -131 -161z" />
    <glyph glyph-name="numbersign" unicode="#" horiz-adv-x="756" 
d="M91 242l23 90h152l70 156h-153l23 90h171l110 242h104l-110 -242h159l109 242h104l-109 -242h134l-23 -90h-152l-70 -156h153l-23 -90h-171l-109 -242h-105l110 242h-158l-110 -242h-104l109 242h-134zM528 332l71 156h-158l-71 -156h158z" />
    <glyph glyph-name="quoteleft" unicode="&#x2018;" horiz-adv-x="357" 
d="M405 820h84l-171 -266h-114z" />
    <glyph glyph-name="ffl" unicode="&#xfb04;" horiz-adv-x="973" 
d="M862 746c-4 19 -14 44 -35 44c-16 0 -31 -13 -44 -26c-15 -15 -26 -33 -31 -51l-60 -229h114l-23 -90h-115l-102 -394h-99l102 394h-219l-102 -394h-99l102 394h-109l23 90h109l60 229c11 42 44 79 81 110c35 30 77 57 117 57c49 0 81 -41 100 -79l-88 -55
c-4 19 -15 44 -36 44c-16 0 -30 -13 -43 -26c-15 -15 -27 -33 -32 -51l-60 -229h220l60 229c11 42 44 79 81 110c35 30 76 57 116 57c49 0 81 -41 100 -79zM790 0l226 870h99l-226 -870h-99z" />
    <glyph glyph-name="perthousandzero" horiz-adv-x="483" 
d="M326 324c-27 0 -54 -19 -77 -40c-25 -22 -46 -48 -54 -77c-2 -8 -3 -15 -3 -22c0 -20 7 -39 17 -55c12 -21 29 -40 56 -40s54 19 77 40c25 22 46 48 54 77c2 8 3 15 3 22c0 20 -7 39 -17 55c-12 21 -29 40 -56 40zM349 414c52 0 88 -33 114 -70c21 -29 36 -64 36 -102
c0 -11 -1 -23 -4 -35c-14 -53 -57 -99 -104 -137c-46 -37 -97 -70 -149 -70s-88 33 -114 70c-21 29 -37 64 -37 102c0 11 2 23 5 35c14 53 56 99 103 137c46 37 98 70 150 70z" />
    <glyph glyph-name="lcaron" unicode="&#x13e;" horiz-adv-x="267" 
d="M84 0l226 870h99l-226 -870h-99zM545 870h114l-201 -266h-84z" />
    <glyph glyph-name="three" unicode="3" 
d="M97 168l99 38c-2 -31 16 -57 36 -78c25 -27 58 -48 100 -48s86 21 125 48c36 25 73 55 83 94c2 7 2 15 2 21c0 29 -17 54 -36 74c-25 27 -58 48 -100 48h-59l23 90h60c42 0 86 21 125 48c36 25 72 56 82 95c2 7 3 14 3 20c0 29 -17 54 -36 74c-25 27 -58 48 -100 48
s-86 -21 -125 -48c-31 -21 -62 -47 -77 -78l-79 38c26 38 66 71 106 99c62 44 131 79 198 79s119 -35 158 -79c30 -33 56 -73 56 -120c0 -11 -2 -21 -5 -33c-14 -55 -70 -95 -124 -127c-28 -17 -57 -32 -86 -43c23 -14 43 -32 61 -52c30 -33 56 -73 56 -120
c0 -11 -1 -22 -4 -34c-16 -62 -74 -112 -132 -153c-62 -44 -131 -79 -198 -79s-118 35 -157 79c-26 28 -49 61 -55 99z" />
    <glyph glyph-name="Ucircumflex" unicode="&#xdb;" horiz-adv-x="832" 
d="M951 820l-140 -540c-20 -77 -89 -139 -160 -191c-74 -54 -157 -99 -238 -99s-141 45 -187 99c-35 42 -65 90 -65 147c0 14 2 29 6 44l140 540h99l-140 -540c-3 -10 -4 -20 -4 -30c0 -40 20 -73 45 -102c32 -37 74 -68 130 -68s113 31 164 68c49 36 97 79 111 132l140 540
h99zM613 983l-117 -101h-84l161 164h112l76 -164h-84z" />
    <glyph glyph-name="ohungarumlaut" unicode="&#x151;" horiz-adv-x="700" 
d="M353 574l155 164h111l-183 -164h-83zM718 738h111l-183 -164h-83zM455 404c-48 0 -98 -24 -143 -55c-41 -28 -83 -63 -94 -107c-2 -8 -3 -16 -3 -23c0 -33 19 -61 41 -84c29 -31 67 -55 115 -55s98 24 143 55c41 28 83 63 94 107c2 8 3 16 3 23c0 33 -20 61 -42 84
c-29 31 -66 55 -114 55zM478 494c73 0 129 -38 172 -86c33 -36 62 -79 62 -130c0 -12 -2 -23 -5 -36c-18 -68 -80 -122 -143 -166c-68 -48 -144 -86 -217 -86s-128 38 -171 86c-33 36 -62 79 -62 130c0 12 2 23 5 36c18 68 80 122 143 166c68 48 143 86 216 86z" />
    <glyph glyph-name="bracketleft" unicode="[" horiz-adv-x="392" 
d="M48 -300l302 1161h224l-24 -90h-125l-255 -981h125l-23 -90h-224z" />
    <glyph glyph-name="oacute" unicode="&#xf3;" horiz-adv-x="700" 
d="M622 738h114l-194 -164h-85zM455 404c-48 0 -98 -24 -143 -55c-41 -28 -83 -63 -94 -107c-2 -8 -3 -16 -3 -23c0 -33 19 -61 41 -84c29 -31 67 -55 115 -55s98 24 143 55c41 28 83 63 94 107c2 8 3 16 3 23c0 33 -20 61 -42 84c-29 31 -66 55 -114 55zM478 494
c73 0 129 -38 172 -86c33 -36 62 -79 62 -130c0 -12 -2 -23 -5 -36c-18 -68 -80 -122 -143 -166c-68 -48 -144 -86 -217 -86s-128 38 -171 86c-33 36 -62 79 -62 130c0 12 2 23 5 36c18 68 80 122 143 166c68 48 143 86 216 86z" />
    <glyph glyph-name="nine" unicode="9" horiz-adv-x="686" 
d="M636 432c-54 -55 -142 -128 -221 -128c-72 0 -125 40 -166 89c-31 38 -58 82 -58 134c0 13 1 26 5 40c18 69 79 126 143 173c66 49 141 90 213 90s125 -41 166 -90c31 -38 58 -81 58 -133c0 -13 -2 -26 -6 -40l-74 -285c-19 -75 -81 -140 -147 -193s-142 -99 -216 -99
s-125 46 -163 99c-25 34 -46 73 -52 116l99 37c1 -35 16 -66 34 -93c24 -36 57 -69 106 -69s99 33 142 69c45 37 85 82 98 133zM528 740c-47 0 -96 -27 -139 -59c-42 -31 -82 -68 -94 -114c-2 -9 -3 -18 -3 -27c0 -34 18 -63 38 -88c27 -32 61 -58 108 -58s97 26 140 58
c42 31 81 69 93 115c2 9 4 17 4 26c0 34 -18 63 -38 88c-27 32 -62 59 -109 59z" />
    <glyph glyph-name="backslash" unicode="\" horiz-adv-x="525" 
d="M364 -41l-112 902h122l112 -902h-122z" />
    <glyph glyph-name="atilde" unicode="&#xe3;" horiz-adv-x="658" 
d="M394 304c60 0 109 -34 142 -71l18 71c1 4 2 8 2 12c0 24 -20 40 -39 54c-27 20 -59 34 -97 34s-77 -14 -114 -34c-30 -16 -63 -36 -72 -65l-76 44c24 32 62 58 98 80c60 37 125 65 187 65s114 -28 155 -65c30 -27 58 -59 58 -101c0 -8 -1 -15 -3 -24l-79 -304h-99l16 61
c-49 -35 -119 -71 -179 -71c-61 0 -113 21 -157 53c-31 22 -63 48 -63 86c0 6 0 12 2 18c13 48 66 77 115 103c60 32 124 54 185 54zM433 613c-22 0 -60 -16 -65 -35h-79c8 31 36 56 65 76c31 22 66 39 99 39c43 0 78 -23 121 -23c22 0 59 16 64 35h80
c-8 -31 -37 -56 -66 -76c-31 -22 -66 -39 -99 -39c-43 0 -77 23 -120 23zM371 214c-36 0 -75 -9 -112 -23c-27 -10 -67 -23 -67 -50c0 -18 24 -29 44 -38c30 -14 64 -23 100 -23s74 9 111 23c27 10 67 23 67 50c0 18 -24 29 -44 38c-30 14 -63 23 -99 23z" />
    <glyph glyph-name="Aacute" unicode="&#xc1;" horiz-adv-x="777" 
d="M14 0l573 820h29l147 -820h-101l-21 120h-431l-84 -120h-112zM660 1046h114l-194 -164h-84zM625 210l-72 400l-280 -400h352z" />
    <glyph glyph-name="ccedilla" unicode="&#xe7;" horiz-adv-x="675" 
d="M682 187c-28 -43 -73 -79 -118 -111c-59 -42 -126 -76 -190 -84l-22 -47c34 -4 62 -22 84 -45c19 -20 37 -43 37 -72c0 -6 -1 -11 -3 -18c-10 -37 -45 -67 -81 -91c-39 -26 -82 -46 -124 -46s-74 20 -100 46c-19 19 -36 42 -37 69l82 22c-1 -3 -1 -6 -1 -9
c0 -14 10 -25 21 -34c14 -13 32 -22 54 -22s44 9 65 22c19 12 43 26 43 51c0 14 -10 25 -21 34c-14 13 -32 22 -54 22h-73l59 121c-52 12 -93 44 -127 81c-33 36 -62 79 -62 130c0 12 2 23 5 36c18 68 80 122 143 166c68 48 143 86 216 86s129 -38 172 -86
c29 -32 54 -68 60 -111l-99 -36c1 35 -19 64 -42 88c-29 31 -66 55 -114 55s-98 -24 -143 -55c-41 -28 -83 -63 -94 -107c-2 -8 -3 -16 -3 -23c0 -33 19 -61 41 -84c29 -31 67 -55 115 -55s98 24 143 55c35 24 70 53 87 88z" />
    <glyph glyph-name="Lslash" unicode="&#x141;" horiz-adv-x="658" 
d="M616 0h-504l73 282l-96 -49l28 108l96 49l112 430h99l-96 -372l273 139l-28 -108l-274 -139l-65 -250h405z" />
    <glyph glyph-name="Sacute" unicode="&#x15a;" horiz-adv-x="728" 
d="M112 182l100 35v-8c0 -33 23 -58 47 -79c33 -29 73 -50 122 -50c50 0 103 19 151 48c41 25 82 58 93 100c2 9 4 18 4 27c0 44 -30 77 -75 87l-169 54c-85 18 -148 77 -148 158c0 14 2 29 6 44c16 63 71 115 130 156c64 44 135 76 203 76s120 -35 160 -79
c27 -30 51 -64 56 -105l-100 -18c-3 25 -20 46 -37 64c-26 27 -59 48 -102 48s-88 -20 -129 -47c-37 -25 -72 -56 -82 -95c-2 -8 -3 -17 -3 -24c0 -46 39 -77 88 -88l169 -54c81 -17 135 -77 135 -156c0 -15 -3 -31 -7 -48c-17 -66 -78 -119 -141 -160
c-71 -46 -150 -78 -225 -78c-74 0 -133 35 -180 81c-31 31 -61 67 -66 111zM632 1046h114l-194 -164h-84z" />
    <glyph glyph-name="visiblespace" unicode="&#x2420;" horiz-adv-x="560" 
d="M28 0h99l-19 -75h306l19 75h99c-14 -55 -29 -110 -43 -165h-504c14 55 29 110 43 165z" />
    <glyph glyph-name="aring" unicode="&#xe5;" horiz-adv-x="658" 
d="M394 304c60 0 109 -34 142 -71l18 71c1 4 2 8 2 12c0 24 -20 40 -39 54c-27 20 -59 34 -97 34s-77 -14 -114 -34c-30 -16 -63 -36 -72 -65l-76 44c24 32 62 58 98 80c60 37 125 65 187 65s114 -28 155 -65c30 -27 58 -59 58 -101c0 -8 -1 -15 -3 -24l-79 -304h-99l16 61
c-49 -35 -119 -71 -179 -71c-61 0 -113 21 -157 53c-31 22 -63 48 -63 86c0 6 0 12 2 18c13 48 66 77 115 103c60 32 124 54 185 54zM371 214c-36 0 -75 -9 -112 -23c-27 -10 -67 -23 -67 -50c0 -18 24 -29 44 -38c30 -14 64 -23 100 -23s74 9 111 23c27 10 67 23 67 50
c0 18 -24 29 -44 38c-30 14 -63 23 -99 23zM520 708c-15 0 -31 -8 -45 -18s-31 -22 -31 -42c0 -11 6 -20 13 -27c9 -10 21 -17 36 -17s32 7 46 17s30 22 30 42c0 11 -6 20 -13 27c-9 10 -21 18 -36 18zM536 768c32 0 56 -17 74 -38c14 -16 27 -36 27 -58c0 -5 -2 -10 -3 -16
c-8 -30 -34 -54 -62 -74c-29 -21 -62 -38 -94 -38s-56 17 -74 38c-14 16 -27 35 -27 57c0 5 1 11 2 17c8 30 35 54 63 74c29 21 62 38 94 38z" />
    <glyph glyph-name="m" unicode="m" horiz-adv-x="1015" 
d="M631 363c50 55 142 131 225 131c54 0 92 -34 120 -72c22 -30 40 -65 40 -105c0 -11 -2 -22 -5 -34l-73 -283h-99l73 283c2 7 3 14 3 21c0 22 -9 42 -20 59c-14 22 -33 41 -62 41c-40 0 -82 -17 -121 -41c-34 -21 -69 -45 -78 -80l-74 -283h-98l73 283c2 7 3 14 3 21
c0 22 -9 42 -20 59c-14 22 -34 41 -63 41c-40 0 -82 -17 -121 -41c-34 -21 -69 -45 -78 -80l-73 -283h-99l126 484h99l-23 -88c50 44 125 98 192 98c54 0 93 -34 121 -72c13 -18 25 -38 32 -59z" />
    <glyph glyph-name="ograve" unicode="&#xf2;" horiz-adv-x="700" 
d="M391 738h114l79 -164h-85zM455 404c-48 0 -98 -24 -143 -55c-41 -28 -83 -63 -94 -107c-2 -8 -3 -16 -3 -23c0 -33 19 -61 41 -84c29 -31 67 -55 115 -55s98 24 143 55c41 28 83 63 94 107c2 8 3 16 3 23c0 33 -20 61 -42 84c-29 31 -66 55 -114 55zM478 494
c73 0 129 -38 172 -86c33 -36 62 -79 62 -130c0 -12 -2 -23 -5 -36c-18 -68 -80 -122 -143 -166c-68 -48 -144 -86 -217 -86s-128 38 -171 86c-33 36 -62 79 -62 130c0 12 2 23 5 36c18 68 80 122 143 166c68 48 143 86 216 86z" />
    <glyph glyph-name="Cacute" unicode="&#x106;" horiz-adv-x="945" 
d="M970 297c-42 -61 -102 -116 -164 -164c-98 -77 -210 -143 -319 -143s-186 66 -244 143c-45 60 -82 129 -82 209c0 22 3 45 9 68c28 109 120 201 217 277c98 77 210 143 319 143s186 -66 244 -143c37 -48 68 -103 79 -164l-98 -38c-5 54 -30 101 -61 143
c-44 60 -103 112 -188 112s-170 -52 -245 -112c-76 -60 -146 -133 -168 -218c-5 -19 -7 -36 -7 -54c0 -62 27 -117 61 -164c44 -60 103 -112 188 -112s170 52 245 112c52 42 103 89 136 143zM762 1046h114l-194 -164h-85z" />
    <glyph glyph-name="six" unicode="6" horiz-adv-x="686" 
d="M781 615l-99 -37c-1 35 -15 66 -33 93c-24 36 -58 69 -107 69l24 90c74 0 125 -46 163 -99c25 -34 46 -73 52 -116zM371 80c47 0 96 27 139 59c42 31 82 68 94 114c2 9 3 18 3 27c0 34 -17 63 -37 88c-27 32 -62 58 -109 58s-97 -26 -140 -58c-42 -31 -81 -69 -93 -115
c-2 -9 -4 -17 -4 -26c0 -34 18 -63 38 -88c27 -32 62 -59 109 -59zM263 389c54 55 142 127 221 127c72 0 125 -40 166 -89c31 -38 58 -82 58 -134c0 -13 -1 -26 -5 -40c-18 -69 -79 -126 -143 -173c-66 -49 -141 -90 -213 -90s-125 41 -166 90c-31 38 -57 81 -57 133
c0 13 1 26 5 40l74 285c19 75 82 140 148 193s141 99 215 99c-27 -105 -55 -209 -82 -314l58 224c-49 0 -99 -33 -142 -69c-45 -37 -85 -82 -98 -133z" />
    <glyph glyph-name="egrave" unicode="&#xe8;" horiz-adv-x="693" 
d="M667 150c-27 -33 -67 -61 -106 -85c-68 -43 -143 -75 -214 -75c-73 0 -128 38 -171 86c-33 36 -62 79 -62 130c0 12 2 23 5 36c18 68 80 122 143 166c68 48 143 86 216 86s129 -38 172 -86c33 -36 62 -79 62 -130c0 -12 -2 -23 -5 -36l-12 -45h-100zM391 738h114l79 -164
h-85zM371 80c46 0 95 18 140 44c34 19 69 42 84 73h-377c6 -24 21 -44 38 -62c29 -31 67 -55 115 -55zM608 287c-6 24 -22 44 -39 62c-29 31 -66 55 -114 55s-98 -24 -143 -55c-26 -18 -52 -38 -71 -62h367z" />
    <glyph glyph-name="cwm" horiz-adv-x="0" 
d="M121 -11c-5 -18 -21 -34 -44 -34c-21 0 -45 18 -45 44c0 4 1 8 2 12l214 820c5 18 20 34 43 34c21 0 45 -18 45 -44c0 -4 -1 -8 -2 -12z" />
    <glyph glyph-name="hyphen" unicode="-" horiz-adv-x="406" 
d="M107 197l24 90h294l-24 -90h-294z" />
    <glyph glyph-name="scaron" unicode="&#x161;" horiz-adv-x="560" 
d="M76 122l102 19c0 -2 -1 -4 -1 -6c0 -16 20 -26 37 -34c26 -13 55 -21 87 -21s66 7 99 20c26 10 57 21 57 50c0 20 -19 33 -43 33l-122 32c-74 1 -132 40 -132 102c0 9 0 18 3 28c11 42 53 75 94 100c48 29 101 49 151 49s91 -22 124 -51c24 -21 47 -46 47 -78l-102 -20
c1 2 1 5 1 7c0 15 -14 24 -27 32c-19 12 -41 20 -66 20s-52 -7 -77 -19c-21 -10 -47 -22 -47 -48c0 -22 27 -32 56 -32l122 -32c69 -1 120 -42 120 -102c0 -10 -1 -20 -4 -30c-12 -45 -60 -77 -105 -102c-56 -31 -116 -49 -173 -49c-56 0 -103 21 -143 51
c-28 21 -57 46 -58 81zM584 738h84l-161 -164h-113l-75 164h84l64 -101z" />
    <glyph glyph-name="Zacute" unicode="&#x179;" horiz-adv-x="714" 
d="M225 730l23 90h644l-7 -29l-650 -701h467l-23 -90h-644l8 29l650 701h-468zM629 1046h114l-194 -164h-85z" />
    <glyph glyph-name="igrave" unicode="&#xec;" horiz-adv-x="266" 
d="M84 0l125 484h99l-126 -484h-98zM174 738h114l79 -164h-85z" />
    <glyph glyph-name="acircumflex" unicode="&#xe2;" horiz-adv-x="658" 
d="M394 304c60 0 109 -34 142 -71l18 71c1 4 2 8 2 12c0 24 -20 40 -39 54c-27 20 -59 34 -97 34s-77 -14 -114 -34c-30 -16 -63 -36 -72 -65l-76 44c24 32 62 58 98 80c60 37 125 65 187 65s114 -28 155 -65c30 -27 58 -59 58 -101c0 -8 -1 -15 -3 -24l-79 -304h-99l16 61
c-49 -35 -119 -71 -179 -71c-61 0 -113 21 -157 53c-31 22 -63 48 -63 86c0 6 0 12 2 18c13 48 66 77 115 103c60 32 124 54 185 54zM371 214c-36 0 -75 -9 -112 -23c-27 -10 -67 -23 -67 -50c0 -18 24 -29 44 -38c30 -14 64 -23 100 -23s74 9 111 23c27 10 67 23 67 50
c0 18 -24 29 -44 38c-30 14 -63 23 -99 23zM512 675l-117 -101h-84l161 164h113l75 -164h-84z" />
    <glyph glyph-name="M" unicode="M" horiz-adv-x="1085" 
d="M98 0l213 820h29l232 -665l599 665h29l-213 -820h-99l134 516l-465 -516h-29l-190 544l-141 -544h-99z" />
    <glyph glyph-name="N" unicode="N" horiz-adv-x="875" 
d="M98 0l213 820h29l391 -617l160 617h99l-213 -820h-29l-391 617l-160 -617h-99z" />
    <glyph glyph-name="at" unicode="@" horiz-adv-x="938" 
d="M607 619c47 0 72 -39 90 -77l20 77h99l-85 -328c35 0 71 17 104 40c30 21 61 47 69 79c5 19 7 36 7 54c0 62 -28 117 -62 164c-44 60 -103 112 -188 112s-170 -52 -245 -112c-76 -60 -146 -133 -168 -218c-5 -19 -7 -36 -7 -54c0 -62 27 -117 61 -164
c44 -60 103 -112 188 -112c76 0 155 22 231 56c48 21 101 45 127 82l52 -61c-37 -32 -84 -57 -129 -80c-99 -51 -205 -87 -305 -87c-109 0 -186 66 -244 143c-45 60 -82 129 -82 209c0 22 3 45 9 68c28 109 120 201 217 277c98 77 210 143 319 143s186 -66 244 -143
c45 -60 82 -129 82 -209c0 -106 -54 -155 -126 -206c-56 -39 -118 -71 -178 -71h-99l20 77c-36 -37 -82 -77 -129 -77c-54 0 -92 33 -120 71c-22 30 -39 65 -39 104c0 11 1 22 4 34c14 54 59 100 107 138s102 71 156 71zM584 529c-29 0 -58 -19 -83 -40
c-26 -22 -50 -49 -58 -79c-2 -7 -3 -14 -3 -21c0 -21 9 -41 20 -58c14 -21 33 -40 62 -40s58 19 83 40c26 22 50 49 58 79c2 7 2 14 2 21c0 21 -8 41 -19 58c-14 21 -33 40 -62 40z" />
    <glyph glyph-name="idieresis" unicode="&#xef;" horiz-adv-x="266" 
d="M84 0l125 484h99l-126 -484h-98zM210 697c26 0 50 -29 50 -56c0 -25 -18 -41 -35 -55c-15 -12 -33 -23 -50 -23s-29 11 -38 23c-7 10 -13 20 -13 33c0 25 18 41 35 55c15 12 34 23 51 23zM462 697c26 0 50 -29 50 -56c0 -25 -18 -41 -35 -55c-15 -12 -33 -23 -50 -23
s-29 11 -38 23c-7 10 -13 20 -13 33c0 25 18 41 35 55c15 12 34 23 51 23z" />
    <glyph glyph-name="colon" unicode=":" horiz-adv-x="323" 
d="M162 0c-25 0 -50 28 -50 54c0 24 18 40 35 53c15 12 31 22 48 22c25 0 49 -28 49 -54c0 -24 -17 -40 -34 -53c-15 -12 -31 -22 -48 -22zM254 355c-25 0 -49 28 -49 54c0 24 17 40 34 53c15 12 31 22 48 22c25 0 49 -28 49 -54c0 -24 -17 -40 -34 -53
c-15 -12 -31 -22 -48 -22z" />
    <glyph glyph-name="l" unicode="l" horiz-adv-x="267" 
d="M84 0l226 870h99l-226 -870h-99z" />
    <glyph glyph-name="Iacute" unicode="&#xcd;" horiz-adv-x="323" 
d="M112 0l213 820h99l-213 -820h-99zM433 1046h114l-194 -164h-84z" />
    <glyph glyph-name="two" unicode="2" 
d="M56 0l23 90l300 201c118 81 238 178 271 303c2 7 3 14 3 21c0 30 -17 54 -36 75c-25 28 -57 50 -99 50s-87 -22 -126 -50c-31 -22 -61 -47 -76 -78l-80 37c26 38 67 72 107 101c62 44 131 80 198 80s118 -36 157 -80c30 -34 56 -75 56 -122c0 -11 -2 -22 -5 -34
c-58 -223 -324 -376 -515 -504h384l-23 -90h-539z" />
    <glyph glyph-name="zero" unicode="0" horiz-adv-x="728" 
d="M556 740c-59 0 -113 -49 -156 -101c-58 -69 -96 -149 -117 -229c-11 -42 -17 -84 -17 -124c0 -36 5 -72 15 -105c16 -52 45 -101 104 -101s113 49 156 101c58 69 97 149 118 229c11 42 16 84 16 124c0 36 -5 72 -15 105c-16 52 -45 101 -104 101zM580 830
c84 0 135 -59 165 -129c20 -48 30 -101 30 -157c0 -44 -5 -89 -17 -134c-27 -104 -83 -205 -164 -291c-66 -70 -149 -129 -233 -129s-135 59 -165 129c-20 48 -30 101 -30 157c0 44 6 89 18 134c27 104 82 205 163 291c66 70 149 129 233 129z" />
    <glyph glyph-name="g" unicode="g" horiz-adv-x="714" 
d="M471 494c76 0 128 -62 157 -120l29 110h99l-135 -518c-19 -72 -80 -132 -145 -182c-66 -51 -141 -94 -214 -94s-125 43 -165 94c-14 18 -26 36 -36 56l88 55c7 -19 17 -36 29 -52c26 -34 60 -63 108 -63s97 29 140 63s84 75 96 123l40 154c-54 -53 -141 -120 -219 -120
c-71 0 -126 37 -168 84c-32 35 -59 77 -59 127c0 11 1 24 4 36c17 66 78 119 140 163c66 47 140 84 211 84zM448 404c-46 0 -95 -24 -138 -54c-40 -27 -80 -60 -91 -103c-2 -8 -3 -15 -3 -22c0 -32 19 -59 40 -82c28 -30 64 -53 110 -53s95 23 138 53c40 27 80 61 91 104
c2 8 3 15 3 22c0 32 -19 58 -40 81c-28 30 -64 54 -110 54z" />
    <glyph glyph-name="Tcedilla" unicode="&#x162;" horiz-adv-x="644" 
d="M194 730l24 90h635l-24 -90h-268l-189 -730h-21l-27 -55c34 -4 62 -22 84 -45c19 -20 37 -43 37 -72c0 -6 -1 -11 -3 -18c-10 -37 -45 -67 -81 -91c-39 -26 -82 -46 -124 -46s-74 20 -100 46c-19 19 -36 42 -37 69l82 22c-1 -3 -1 -6 -1 -9c0 -14 10 -25 21 -34
c14 -13 32 -22 54 -22s44 9 65 22c19 12 43 26 43 51c0 14 -10 25 -21 34c-14 13 -32 22 -54 22h-73l61 126h-5l190 730h-268z" />
    <glyph glyph-name="Tcaron" unicode="&#x164;" horiz-adv-x="644" 
d="M194 730l24 90h635l-24 -90h-268l-189 -730h-100l190 730h-268zM626 1046h84l-161 -164h-113l-75 164h84l64 -102z" />
    <glyph glyph-name="hungarumlaut" unicode="&#x2dd;" horiz-adv-x="294" 
d="M150 656l155 164h111l-183 -164h-83zM515 820h111l-183 -164h-83z" />
    <glyph glyph-name="Lacute" unicode="&#x139;" horiz-adv-x="644" 
d="M98 0l213 820h99l-190 -730h405l-23 -90h-504zM419 1046h114l-194 -164h-84z" />
    <glyph glyph-name="quotesinglbase" unicode="&#x201a;" horiz-adv-x="357" 
d="M203 102h114l-200 -266h-85z" />
    <glyph glyph-name="grave" unicode="`" horiz-adv-x="280" 
d="M230 820h114l79 -164h-85z" />
    <glyph glyph-name="otilde" unicode="&#xf5;" horiz-adv-x="700" 
d="M468 613c-22 0 -60 -16 -65 -35h-79c8 31 36 56 65 76c31 22 66 39 99 39c43 0 78 -23 121 -23c22 0 59 16 64 35h80c-8 -31 -37 -56 -66 -76c-31 -22 -66 -39 -99 -39c-43 0 -77 23 -120 23zM455 404c-48 0 -98 -24 -143 -55c-41 -28 -83 -63 -94 -107
c-2 -8 -3 -16 -3 -23c0 -33 19 -61 41 -84c29 -31 67 -55 115 -55s98 24 143 55c41 28 83 63 94 107c2 8 3 16 3 23c0 33 -20 61 -42 84c-29 31 -66 55 -114 55zM478 494c73 0 129 -38 172 -86c33 -36 62 -79 62 -130c0 -12 -2 -23 -5 -36c-18 -68 -80 -122 -143 -166
c-68 -48 -144 -86 -217 -86s-128 38 -171 86c-33 36 -62 79 -62 130c0 12 2 23 5 36c18 68 80 122 143 166c68 48 143 86 216 86z" />
    <glyph glyph-name="uhungarumlaut" unicode="&#x171;" 
d="M504 83c-46 -43 -116 -93 -178 -93s-110 32 -147 72c-28 30 -54 66 -54 109c0 10 1 20 4 30l74 283h99l-74 -283c-1 -6 -2 -11 -2 -16c0 -26 17 -47 34 -64c23 -23 53 -41 90 -41s76 18 111 41c32 21 64 47 73 80l74 283h99l-126 -484h-99zM332 574l155 164h111
l-183 -164h-83zM697 738h111l-183 -164h-83z" />
    <glyph glyph-name="dcroat" unicode="&#x111;" horiz-adv-x="735" 
d="M471 494c76 0 128 -64 157 -123l72 280h-188l24 90h188l33 129h99l-33 -129h91l-24 -90h-91l-169 -651h-99l29 112c-54 -53 -142 -122 -220 -122c-72 0 -125 39 -167 86c-32 36 -59 78 -59 129c0 12 2 24 5 37c17 67 79 121 141 166c66 47 139 86 211 86zM448 404
c-47 0 -95 -24 -138 -55c-41 -29 -81 -64 -92 -107c-2 -8 -3 -16 -3 -24c0 -33 18 -60 39 -83c28 -31 63 -55 110 -55s95 24 138 55c41 29 81 64 92 107c3 8 3 16 3 23c0 33 -18 61 -39 84c-28 31 -63 55 -110 55z" />
    <glyph glyph-name="K" unicode="K" horiz-adv-x="742" 
d="M311 820h99l-136 -525c179 175 359 350 538 525h134l-384 -374l171 -446h-108l-141 369l-256 -250l-31 -119h-99c71 273 142 547 213 820z" />
    <glyph glyph-name="zdotaccent" unicode="&#x17c;" horiz-adv-x="518" 
d="M137 394l24 90h448l-8 -29l-353 -365h258l-23 -90h-448l8 29l353 365h-259zM462 697c26 0 50 -29 50 -56c0 -25 -18 -41 -35 -55c-15 -12 -33 -23 -50 -23s-29 11 -38 23c-7 10 -13 20 -13 33c0 25 18 41 35 55c15 12 34 23 51 23z" />
    <glyph glyph-name="period" unicode="." horiz-adv-x="323" 
d="M162 0c-25 0 -50 28 -50 54c0 24 18 40 35 53c15 12 31 22 48 22c25 0 49 -28 49 -54c0 -24 -17 -40 -34 -53c-15 -12 -31 -22 -48 -22z" />
    <glyph glyph-name="k" unicode="k" horiz-adv-x="609" 
d="M317 870h99l-154 -592l300 206h159l-290 -199l164 -285h-119l-131 226l-117 -81l-38 -145h-99z" />
    <glyph glyph-name="W" unicode="W" horiz-adv-x="1092" 
d="M227 820h100l91 -595l212 315l-43 280h100l24 -158l106 158h114l-199 -296l46 -299l399 595h114l-551 -820h-28l-61 402l-271 -402h-28z" />
    <glyph glyph-name="X" unicode="X" horiz-adv-x="693" 
d="M243 820h106l125 -304l274 304h129l-363 -402l172 -418h-106l-139 338l-305 -338h-129l394 436z" />
    <glyph glyph-name="ogonek" unicode="&#x2db;" horiz-adv-x="280" 
d="M195 72l6 -72l-124 -108c-28 -27 -68 -47 -77 -82c-1 -3 -1 -6 -1 -9c0 -14 10 -25 21 -34c14 -13 32 -22 54 -22s44 9 65 22c18 11 37 23 42 41l58 -38c-16 -19 -38 -36 -60 -51c-39 -26 -82 -46 -124 -46s-74 20 -100 46c-19 20 -37 43 -37 72c0 6 1 12 3 19
c17 67 95 103 149 154z" />
    <glyph glyph-name="agrave" unicode="&#xe0;" horiz-adv-x="658" 
d="M394 304c60 0 109 -34 142 -71l18 71c1 4 2 8 2 12c0 24 -20 40 -39 54c-27 20 -59 34 -97 34s-77 -14 -114 -34c-30 -16 -63 -36 -72 -65l-76 44c24 32 62 58 98 80c60 37 125 65 187 65s114 -28 155 -65c30 -27 58 -59 58 -101c0 -8 -1 -15 -3 -24l-79 -304h-99l16 61
c-49 -35 -119 -71 -179 -71c-61 0 -113 21 -157 53c-31 22 -63 48 -63 86c0 6 0 12 2 18c13 48 66 77 115 103c60 32 124 54 185 54zM356 738h114l79 -164h-85zM371 214c-36 0 -75 -9 -112 -23c-27 -10 -67 -23 -67 -50c0 -18 24 -29 44 -38c30 -14 64 -23 100 -23
s74 9 111 23c27 10 67 23 67 50c0 18 -24 29 -44 38c-30 14 -63 23 -99 23z" />
    <glyph glyph-name="aogonek" unicode="&#x105;" horiz-adv-x="658" 
d="M394 304c60 0 109 -34 142 -71l18 71c1 4 2 8 2 12c0 24 -20 40 -39 54c-27 20 -59 34 -97 34s-77 -14 -114 -34c-30 -16 -63 -36 -72 -65l-76 44c24 32 62 58 98 80c60 37 125 65 187 65s114 -28 155 -65c30 -27 58 -59 58 -101c0 -8 -1 -15 -3 -24l-77 -295l1 -9
l-124 -108c-28 -27 -68 -47 -77 -82c-1 -3 -1 -6 -1 -9c0 -14 10 -25 21 -34c14 -13 32 -22 54 -22s44 9 65 22c18 11 36 23 41 41l59 -38c-16 -19 -38 -36 -60 -51c-39 -26 -82 -46 -124 -46s-74 20 -100 46c-19 20 -37 43 -37 72c0 6 1 12 3 19c17 67 95 103 149 154
l42 36h-13l16 61c-49 -35 -119 -71 -179 -71c-61 0 -113 21 -157 53c-31 22 -63 48 -63 86c0 6 0 12 2 18c13 48 66 77 115 103c60 32 124 54 185 54zM371 214c-36 0 -75 -9 -112 -23c-27 -10 -67 -23 -67 -50c0 -18 24 -29 44 -38c30 -14 64 -23 100 -23s74 9 111 23
c27 10 67 23 67 50c0 18 -24 29 -44 38c-30 14 -63 23 -99 23z" />
    <glyph glyph-name="quotedbl" unicode="&#x22;" horiz-adv-x="413" 
d="M255 820h99l-69 -266h-99zM584 820l-69 -266h-99l69 266h99z" />
    <glyph glyph-name="t" unicode="t" horiz-adv-x="378" 
d="M114 394l23 90h128l101 386h99l-101 -386h128l-23 -90h-128l-103 -394h-98l102 394h-128z" />
    <glyph glyph-name="question" unicode="?" horiz-adv-x="616" 
d="M310 252l53 203h49c39 0 79 22 114 48c34 26 66 58 76 95c2 8 3 14 3 21c0 28 -13 53 -30 73c-22 26 -50 48 -89 48s-78 -22 -113 -48c-28 -21 -56 -47 -70 -76l-81 36c25 38 62 70 101 99c58 43 123 79 187 79s110 -36 146 -79c27 -33 50 -72 50 -118
c0 -11 -2 -23 -5 -35c-16 -61 -69 -112 -125 -154c-42 -32 -89 -59 -136 -72l-31 -120h-99zM294 0c-25 0 -49 28 -49 54c0 24 17 40 34 53c15 12 31 22 48 22c25 0 50 -28 50 -54c0 -24 -18 -40 -35 -53c-15 -12 -31 -22 -48 -22z" />
    <glyph glyph-name="Adieresis" unicode="&#xc4;" horiz-adv-x="777" 
d="M14 0l573 820h29l147 -820h-101l-21 120h-431l-84 -120h-112zM430 871c-27 0 -51 29 -51 56c0 25 19 41 36 55c15 12 33 22 50 22s29 -10 38 -22c7 -10 13 -20 13 -33c0 -25 -19 -42 -36 -56c-15 -12 -33 -22 -50 -22zM682 871c-27 0 -51 29 -51 56c0 25 19 41 36 55
c15 12 33 22 50 22s29 -10 38 -22c7 -10 13 -20 13 -33c0 -25 -19 -42 -36 -56c-15 -12 -33 -22 -50 -22zM625 210l-72 400l-280 -400h352z" />
    <glyph glyph-name="five" unicode="5" horiz-adv-x="672" 
d="M305 820h475l-24 -90h-376l-72 -276c50 51 118 83 185 83c68 0 114 -44 149 -93c27 -39 49 -84 49 -134c0 -15 -2 -30 -6 -46c-19 -71 -80 -132 -145 -181c-66 -50 -141 -93 -214 -93s-125 43 -165 93c-22 28 -41 58 -50 93l95 45c3 -29 19 -56 36 -79
c26 -34 60 -62 108 -62s97 28 140 62c43 33 84 74 96 122c3 11 4 22 4 33c0 32 -13 62 -29 88c-21 33 -48 62 -91 62c-72 0 -148 -43 -192 -110h-99z" />
    <glyph glyph-name="Aring" unicode="&#xc5;" horiz-adv-x="777" 
d="M14 0l573 820h29l147 -820h-101l-21 120h-431l-84 -120h-112zM625 210l-72 400l-280 -400h352zM594 1016c-15 0 -31 -8 -45 -18s-31 -22 -31 -42c0 -11 6 -20 13 -27c9 -10 21 -17 36 -17s31 7 45 17s31 22 31 42c0 11 -6 20 -13 27c-9 10 -21 18 -36 18zM609 1076
c32 0 57 -18 75 -39c14 -16 26 -35 26 -57c0 -5 -1 -10 -2 -16c-8 -30 -35 -54 -63 -74c-29 -21 -62 -38 -94 -38s-56 17 -74 38c-14 16 -26 35 -26 57c0 5 1 11 2 17c8 30 34 53 62 73c29 21 62 39 94 39z" />
    <glyph glyph-name="z" unicode="z" horiz-adv-x="518" 
d="M137 394l24 90h448l-8 -29l-353 -365h258l-23 -90h-448l8 29l353 365h-259z" />
    <glyph glyph-name="Ccedilla" unicode="&#xc7;" horiz-adv-x="945" 
d="M970 297c-42 -61 -102 -116 -164 -164c-90 -71 -191 -132 -292 -142l-22 -46c34 -4 62 -22 84 -45c19 -20 37 -43 37 -72c0 -6 -1 -11 -3 -18c-10 -37 -45 -67 -81 -91c-39 -26 -82 -46 -124 -46s-74 20 -100 46c-19 19 -36 42 -37 69l82 22c-1 -3 -1 -6 -1 -9
c0 -14 10 -25 21 -34c14 -13 32 -22 54 -22s44 9 65 22c19 12 43 26 43 51c0 14 -10 25 -21 34c-14 13 -32 22 -54 22h-73l58 120c-86 15 -149 73 -199 139c-45 60 -82 129 -82 209c0 22 3 45 9 68c28 109 120 201 217 277c98 77 210 143 319 143s186 -66 244 -143
c37 -48 68 -103 79 -164l-98 -38c-5 54 -30 101 -61 143c-44 60 -103 112 -188 112s-170 -52 -245 -112c-76 -60 -146 -133 -168 -218c-5 -19 -7 -36 -7 -54c0 -62 27 -117 61 -164c44 -60 103 -112 188 -112s170 52 245 112c52 42 103 89 136 143z" />
    <glyph glyph-name="Idotaccent" unicode="&#x130;" horiz-adv-x="323" 
d="M112 0l213 820h99l-213 -820h-99zM329 871c-27 0 -51 29 -51 56c0 25 19 41 36 55c15 12 33 22 50 22s29 -10 38 -22c7 -10 13 -20 13 -33c0 -25 -19 -42 -36 -56c-15 -12 -33 -22 -50 -22z" />
    <glyph glyph-name="sterling" unicode="&#xa3;" horiz-adv-x="672" 
d="M119 250l23 90h107l46 178c20 75 72 145 132 206c53 53 113 106 178 106s99 -53 124 -106c18 -37 30 -79 32 -122l-99 -29v7c0 30 -5 57 -14 84c-12 36 -25 76 -66 76s-76 -40 -106 -76c-38 -45 -68 -94 -82 -146l-46 -178h265l-23 -90h-265l-15 -57
c-11 -44 -57 -77 -100 -103h432l-24 -90h-564c8 30 15 60 23 90c27 0 55 16 80 35c24 19 47 41 54 68l15 57h-107z" />
    <glyph glyph-name="eight" unicode="8" horiz-adv-x="700" 
d="M371 80c46 0 94 23 137 52c40 27 80 59 91 101c2 7 2 14 2 21c0 32 -19 58 -40 80c-28 29 -65 52 -111 52s-94 -23 -137 -52c-40 -27 -79 -59 -90 -101c-2 -7 -3 -14 -3 -21c0 -32 19 -58 40 -80c28 -29 65 -52 111 -52zM347 -10c-71 0 -126 37 -168 83
c-32 35 -60 75 -60 125c0 11 2 23 5 35c17 66 78 117 139 160c33 23 68 44 104 59c-18 10 -33 22 -48 36c-28 26 -54 57 -54 96c0 8 1 16 3 24c15 58 67 106 120 146c55 41 117 76 178 76s104 -35 138 -76c26 -32 48 -69 48 -112c0 -11 -1 -22 -4 -34
c-13 -51 -64 -89 -113 -120c-22 -14 -44 -26 -67 -36c28 -15 53 -36 74 -59c32 -35 60 -76 60 -126c0 -11 -1 -22 -4 -34c-17 -66 -79 -117 -140 -160c-66 -46 -140 -83 -211 -83zM474 476c36 0 72 20 104 44s62 53 71 88c2 7 2 13 2 20c0 26 -12 48 -27 67
c-20 24 -46 45 -82 45s-72 -21 -104 -45s-62 -52 -71 -87c-2 -7 -2 -14 -2 -21c0 -26 12 -48 27 -67c20 -24 46 -44 82 -44z" />
    <glyph glyph-name="Ntilde" unicode="&#xd1;" horiz-adv-x="875" 
d="M98 0l213 820h29l391 -617l160 617h99l-213 -820h-29l-391 617l-160 -617h-99zM555 920c-22 0 -60 -15 -65 -34h-79c8 31 37 55 66 75c31 22 66 39 99 39c43 0 77 -22 120 -22c22 0 60 16 65 35h79c-8 -31 -36 -56 -65 -76c-31 -22 -67 -39 -100 -39
c-43 0 -77 22 -120 22z" />
    <glyph glyph-name="Z" unicode="Z" horiz-adv-x="714" 
d="M225 730l23 90h644l-7 -29l-650 -701h467l-23 -90h-644l8 29l650 701h-468z" />
    <glyph glyph-name="T" unicode="T" horiz-adv-x="644" 
d="M194 730l24 90h635l-24 -90h-268l-189 -730h-100l190 730h-268z" />
    <glyph glyph-name="parenleft" unicode="(" horiz-adv-x="385" 
d="M296 -315c-54 43 -86 133 -114 209c-32 86 -60 176 -60 272c0 39 4 79 15 120c37 143 142 272 249 393c68 76 146 165 222 208l28 -71c-67 -25 -142 -118 -203 -194c-85 -105 -166 -216 -197 -336c-11 -40 -14 -79 -14 -118c0 -76 16 -148 36 -218
c22 -76 49 -169 103 -194z" />
    <glyph glyph-name="Eacute" unicode="&#xc9;" horiz-adv-x="651" 
d="M98 0l213 820h504l-23 -90h-405l-102 -390h356l-23 -90h-356l-42 -160h405l-23 -90h-504zM622 1046h114l-194 -164h-85z" />
    <glyph glyph-name="zcaron" unicode="&#x17e;" horiz-adv-x="518" 
d="M137 394l24 90h448l-8 -29l-353 -365h258l-23 -90h-448l8 29l353 365h-259zM563 738h84l-161 -164h-113l-75 164h84l64 -101z" />
    <glyph glyph-name="IJ" unicode="&#x132;" horiz-adv-x="847" 
d="M969 820l-150 -577c-17 -65 -71 -121 -130 -167s-125 -86 -191 -86s-112 40 -147 86c-27 36 -49 78 -49 126c0 4 1 8 1 13l101 17c-1 -6 -1 -11 -1 -17c0 -30 13 -57 29 -80c21 -29 48 -55 89 -55s82 26 118 55c37 30 70 67 81 108l150 577h99zM112 0l213 820h99
l-213 -820h-99z" />
    <glyph glyph-name="guilsinglleft" unicode="&#x2039;" horiz-adv-x="385" 
d="M252 242l70 -242h-126l-70 242l195 242h127z" />
    <glyph glyph-name="quotedblbase" unicode="&#x201e;" horiz-adv-x="644" 
d="M64 -164l172 266h99l-197 -266h-74zM470 102h114l-199 -266h-85z" />
    <glyph glyph-name="abreve" unicode="&#x103;" horiz-adv-x="658" 
d="M394 304c60 0 109 -34 142 -71l18 71c1 4 2 8 2 12c0 24 -20 40 -39 54c-27 20 -59 34 -97 34s-77 -14 -114 -34c-30 -16 -63 -36 -72 -65l-76 44c24 32 62 58 98 80c60 37 125 65 187 65s114 -28 155 -65c30 -27 58 -59 58 -101c0 -8 -1 -15 -3 -24l-79 -304h-99l16 61
c-49 -35 -119 -71 -179 -71c-61 0 -113 21 -157 53c-31 22 -63 48 -63 86c0 6 0 12 2 18c13 48 66 77 115 103c60 32 124 54 185 54zM723 726c-11 -42 -52 -74 -93 -100c-46 -29 -96 -51 -144 -51s-86 22 -117 51c-23 22 -44 48 -44 80c0 6 0 13 2 20h79c-1 -3 -1 -5 -1 -8
c0 -17 16 -29 30 -39c20 -14 44 -24 72 -24s56 10 84 24c22 12 47 25 53 47h79zM371 214c-36 0 -75 -9 -112 -23c-27 -10 -67 -23 -67 -50c0 -18 24 -29 44 -38c30 -14 64 -23 100 -23s74 9 111 23c27 10 67 23 67 50c0 18 -24 29 -44 38c-30 14 -63 23 -99 23z" />
    <glyph glyph-name="G" unicode="G" horiz-adv-x="1001" 
d="M870 200c-87 -90 -243 -210 -383 -210c-109 0 -186 66 -244 143c-45 60 -82 129 -82 209c0 22 3 45 9 68c28 109 120 201 217 277c98 77 210 143 319 143s186 -66 244 -143c31 -41 58 -87 72 -137l-94 -44c-9 45 -31 86 -58 122c-44 60 -103 112 -188 112
s-170 -52 -245 -112c-76 -60 -146 -133 -168 -218c-5 -19 -7 -36 -7 -54c0 -62 27 -117 61 -164c44 -60 103 -112 188 -112c80 0 164 40 240 90c36 24 71 50 100 80h-296l23 90h328c0 1 1 3 1 4h50c0 -1 -1 -3 -1 -4h49l-88 -340h-99z" />
    <glyph glyph-name="h" unicode="h" horiz-adv-x="637" 
d="M293 398c49 44 122 96 188 96c54 0 90 -34 118 -72c22 -30 39 -65 39 -104c0 -11 -2 -23 -5 -35l-73 -283h-99l73 283c2 8 3 15 3 22c0 22 -8 41 -19 58c-14 22 -31 41 -60 41c-39 0 -80 -17 -118 -41c-33 -21 -68 -46 -77 -80l-73 -283h-99l226 870h99z" />
    <glyph glyph-name="aacute" unicode="&#xe1;" horiz-adv-x="658" 
d="M394 304c60 0 109 -34 142 -71l18 71c1 4 2 8 2 12c0 24 -20 40 -39 54c-27 20 -59 34 -97 34s-77 -14 -114 -34c-30 -16 -63 -36 -72 -65l-76 44c24 32 62 58 98 80c60 37 125 65 187 65s114 -28 155 -65c30 -27 58 -59 58 -101c0 -8 -1 -15 -3 -24l-79 -304h-99l16 61
c-49 -35 -119 -71 -179 -71c-61 0 -113 21 -157 53c-31 22 -63 48 -63 86c0 6 0 12 2 18c13 48 66 77 115 103c60 32 124 54 185 54zM587 738h114l-194 -164h-85zM371 214c-36 0 -75 -9 -112 -23c-27 -10 -67 -23 -67 -50c0 -18 24 -29 44 -38c30 -14 64 -23 100 -23
s74 9 111 23c27 10 67 23 67 50c0 18 -24 29 -44 38c-30 14 -63 23 -99 23z" />
    <glyph glyph-name="eacute" unicode="&#xe9;" horiz-adv-x="693" 
d="M667 150c-27 -33 -67 -61 -106 -85c-68 -43 -143 -75 -214 -75c-73 0 -128 38 -171 86c-33 36 -62 79 -62 130c0 12 2 23 5 36c18 68 80 122 143 166c68 48 143 86 216 86s129 -38 172 -86c33 -36 62 -79 62 -130c0 -12 -2 -23 -5 -36l-12 -45h-100zM622 738h114
l-194 -164h-85zM371 80c46 0 95 18 140 44c34 19 69 42 84 73h-377c6 -24 21 -44 38 -62c29 -31 67 -55 115 -55zM608 287c-6 24 -22 44 -39 62c-29 31 -66 55 -114 55s-98 -24 -143 -55c-26 -18 -52 -38 -71 -62h367z" />
    <glyph glyph-name="Scaron" unicode="&#x160;" horiz-adv-x="728" 
d="M112 182l100 35v-8c0 -33 23 -58 47 -79c33 -29 73 -50 122 -50c50 0 103 19 151 48c41 25 82 58 93 100c2 9 4 18 4 27c0 44 -30 77 -75 87l-169 54c-85 18 -148 77 -148 158c0 14 2 29 6 44c16 63 71 115 130 156c64 44 135 76 203 76s120 -35 160 -79
c27 -30 51 -64 56 -105l-100 -18c-3 25 -20 46 -37 64c-26 27 -59 48 -102 48s-88 -20 -129 -47c-37 -25 -72 -56 -82 -95c-2 -8 -3 -17 -3 -24c0 -46 39 -77 88 -88l169 -54c81 -17 135 -77 135 -156c0 -15 -3 -31 -7 -48c-17 -66 -78 -119 -141 -160
c-71 -46 -150 -78 -225 -78c-74 0 -133 35 -180 81c-31 31 -61 67 -66 111zM664 1046h84l-160 -164h-113l-76 164h84l64 -102z" />
    <glyph glyph-name="greater" unicode="&#x3e;" horiz-adv-x="686" 
d="M529 242l-374 140l30 113l523 -197l-30 -112l-625 -197l29 112z" />
    <glyph glyph-name="oe" unicode="&#x153;" horiz-adv-x="1106" 
d="M465 494c88 0 153 -67 189 -131c63 58 167 131 258 131c69 0 119 -39 158 -86c30 -36 55 -79 55 -128c0 -12 -2 -25 -5 -38l-12 -45h-437c5 -23 18 -44 33 -62c25 -30 57 -55 101 -55c42 0 86 19 126 44c31 19 62 42 76 71l74 -45c-26 -33 -63 -61 -100 -85
c-63 -42 -133 -75 -200 -75c-69 0 -119 39 -158 86c-12 14 -23 29 -32 45c-63 -58 -166 -131 -257 -131c-69 0 -119 39 -158 86c-30 36 -55 78 -55 127c0 12 2 26 5 39c17 66 75 121 136 166c63 47 134 86 203 86zM441 404c-44 0 -89 -25 -129 -55c-39 -29 -76 -65 -87 -107
c-2 -9 -3 -17 -3 -25c0 -32 15 -59 34 -82c25 -30 57 -55 101 -55s89 25 129 55c39 29 76 65 87 107c2 9 4 17 4 25c0 32 -16 59 -35 82c-25 30 -57 55 -101 55zM1022 287c-5 23 -18 44 -33 62c-25 30 -56 55 -100 55s-90 -25 -130 -55c-24 -18 -47 -39 -64 -62h327z" />
    <glyph glyph-name="Nacute" unicode="&#x143;" horiz-adv-x="875" 
d="M98 0l213 820h29l391 -617l160 617h99l-213 -820h-29l-391 617l-160 -617h-99zM709 1046h114l-194 -164h-84z" />
    <glyph glyph-name="lacute" unicode="&#x13a;" horiz-adv-x="267" 
d="M84 0l226 870h99l-226 -870h-99zM421 1087h114l-194 -163h-85z" />
    <glyph glyph-name="less" unicode="&#x3c;" horiz-adv-x="686" 
d="M283 242l373 -141l-29 -112l-523 197l30 112l625 197l-30 -113z" />
    <glyph glyph-name="asciicircum" unicode="^" horiz-adv-x="756" 
d="M567 727l-325 -399h-103l401 492h103l144 -492h-103z" />
    <glyph glyph-name="seven" unicode="7" 
d="M246 730l23 90h539l-7 -29l-536 -791h-118l495 730h-396z" />
    <glyph glyph-name="Ocircumflex" unicode="&#xd4;" horiz-adv-x="980" 
d="M682 740c-85 0 -170 -52 -245 -112c-76 -60 -146 -133 -168 -218c-5 -19 -7 -36 -7 -54c0 -62 27 -117 61 -164c44 -60 103 -112 188 -112s170 52 245 112c76 60 147 133 169 218c5 19 7 36 7 54c0 62 -28 117 -62 164c-44 60 -103 112 -188 112zM706 830
c109 0 186 -66 244 -143c45 -60 82 -129 82 -209c0 -22 -2 -45 -8 -68c-28 -109 -121 -201 -218 -277c-98 -77 -210 -143 -319 -143s-186 66 -244 143c-45 60 -82 129 -82 209c0 22 3 45 9 68c28 109 120 201 217 277c98 77 210 143 319 143zM687 983l-117 -101h-84l161 164
h113l75 -164h-84z" />
    <glyph glyph-name="F" unicode="F" horiz-adv-x="630" 
d="M98 0l213 820h504l-23 -90h-405l-102 -390h356l-23 -90h-356l-65 -250h-99z" />
    <glyph glyph-name="tilde" unicode="&#x2dc;" horiz-adv-x="294" 
d="M265 695c-22 0 -60 -16 -65 -35h-79c8 31 36 56 65 76c31 22 66 39 99 39c43 0 78 -23 121 -23c22 0 59 16 64 35h80c-8 -31 -37 -56 -66 -76c-31 -22 -66 -39 -99 -39c-43 0 -77 23 -120 23z" />
    <glyph glyph-name="iacute" unicode="&#xed;" horiz-adv-x="266" 
d="M84 0l125 484h99l-126 -484h-98zM405 738h114l-194 -164h-85z" />
    <glyph glyph-name="Otilde" unicode="&#xd5;" horiz-adv-x="980" 
d="M608 920c-22 0 -60 -15 -65 -34h-79c8 31 36 55 65 75c31 22 66 39 99 39c43 0 78 -22 121 -22c22 0 59 16 64 35h80c-8 -31 -37 -56 -66 -76c-31 -22 -66 -39 -99 -39c-43 0 -77 22 -120 22zM682 740c-85 0 -170 -52 -245 -112c-76 -60 -146 -133 -168 -218
c-5 -19 -7 -36 -7 -54c0 -62 27 -117 61 -164c44 -60 103 -112 188 -112s170 52 245 112c76 60 147 133 169 218c5 19 7 36 7 54c0 62 -28 117 -62 164c-44 60 -103 112 -188 112zM706 830c109 0 186 -66 244 -143c45 -60 82 -129 82 -209c0 -22 -2 -45 -8 -68
c-28 -109 -121 -201 -218 -277c-98 -77 -210 -143 -319 -143s-186 66 -244 143c-45 60 -82 129 -82 209c0 22 3 45 9 68c28 109 120 201 217 277c98 77 210 143 319 143z" />
    <glyph glyph-name="parenright" unicode=")" horiz-adv-x="385" 
d="M-75 -315l-28 71c67 25 143 118 204 194c85 105 165 216 196 336c11 40 15 79 15 118c0 76 -17 148 -37 218c-22 76 -48 169 -102 194l65 71c54 -43 86 -132 114 -208c32 -86 60 -177 60 -273c0 -39 -5 -79 -16 -120c-37 -143 -141 -271 -248 -392
c-68 -76 -147 -166 -223 -209z" />
    <glyph glyph-name="germandbls" unicode="&#xdf;" horiz-adv-x="693" 
d="M84 0l161 618c15 56 64 102 116 140c54 40 114 72 173 72s102 -32 135 -72c26 -30 48 -66 48 -108c0 -10 -2 -21 -5 -32c-16 -62 -72 -117 -125 -158c19 -14 36 -31 51 -50c29 -36 53 -79 53 -128c0 -13 -1 -25 -5 -39c-16 -63 -63 -119 -117 -167
c-50 -45 -108 -86 -167 -86c-62 0 -102 41 -132 86c-18 27 -33 57 -39 90l97 39c1 -25 10 -49 22 -70c16 -29 38 -55 75 -55c34 0 67 27 94 55c31 32 58 69 68 108c2 9 4 18 4 26c0 31 -16 59 -34 82c-24 30 -55 55 -98 55h-59l23 90h59c27 0 54 20 77 41c25 23 46 51 54 81
c2 6 3 12 3 18c0 24 -13 46 -28 63c-19 23 -44 41 -78 41s-69 -18 -100 -41c-30 -22 -58 -49 -66 -81l-161 -618h-99z" />
    <glyph glyph-name="a" unicode="a" horiz-adv-x="658" 
d="M394 304c60 0 109 -34 142 -71l18 71c1 4 2 8 2 12c0 24 -20 40 -39 54c-27 20 -59 34 -97 34s-77 -14 -114 -34c-30 -16 -63 -36 -72 -65l-76 44c24 32 62 58 98 80c60 37 125 65 187 65s114 -28 155 -65c30 -27 58 -59 58 -101c0 -8 -1 -15 -3 -24l-79 -304h-99l16 61
c-49 -35 -119 -71 -179 -71c-61 0 -113 21 -157 53c-31 22 -63 48 -63 86c0 6 0 12 2 18c13 48 66 77 115 103c60 32 124 54 185 54zM371 214c-36 0 -75 -9 -112 -23c-27 -10 -67 -23 -67 -50c0 -18 24 -29 44 -38c30 -14 64 -23 100 -23s74 9 111 23c27 10 67 23 67 50
c0 18 -24 29 -44 38c-30 14 -63 23 -99 23z" />
    <glyph glyph-name="scedilla" unicode="&#x15f;" horiz-adv-x="560" 
d="M76 122l102 19c0 -2 -1 -4 -1 -6c0 -16 20 -26 37 -34c26 -13 55 -21 87 -21s66 7 99 20c26 10 57 21 57 50c0 20 -19 33 -43 33l-122 32c-74 1 -132 40 -132 102c0 9 0 18 3 28c11 42 53 75 94 100c48 29 101 49 151 49s91 -22 124 -51c24 -21 47 -46 47 -78l-102 -20
c1 2 1 5 1 7c0 15 -14 24 -27 32c-19 12 -41 20 -66 20s-52 -7 -77 -19c-21 -10 -47 -22 -47 -48c0 -22 27 -32 56 -32l122 -32c69 -1 120 -42 120 -102c0 -10 -1 -20 -4 -30c-12 -45 -60 -77 -105 -102c-47 -26 -97 -43 -146 -48l-22 -46c34 -4 62 -22 84 -45
c19 -20 37 -43 37 -72c0 -6 -1 -11 -3 -18c-10 -37 -45 -67 -81 -91c-39 -26 -82 -46 -124 -46s-74 20 -100 46c-19 19 -36 42 -37 69l82 22c-1 -3 -1 -6 -1 -9c0 -14 10 -25 21 -34c14 -13 32 -22 54 -22s44 9 65 22c19 12 43 26 43 51c0 14 -10 25 -21 34
c-14 13 -32 22 -54 22h-73l59 121c-37 8 -70 24 -99 46c-28 21 -57 46 -58 81z" />
    <glyph glyph-name="ugrave" unicode="&#xf9;" 
d="M504 83c-46 -43 -116 -93 -178 -93s-110 32 -147 72c-28 30 -54 66 -54 109c0 10 1 20 4 30l74 283h99l-74 -283c-1 -6 -2 -11 -2 -16c0 -26 17 -47 34 -64c23 -23 53 -41 90 -41s76 18 111 41c32 21 64 47 73 80l74 283h99l-126 -484h-99zM370 738h114l79 -164h-85z" />
    <glyph glyph-name="uacute" unicode="&#xfa;" 
d="M504 83c-46 -43 -116 -93 -178 -93s-110 32 -147 72c-28 30 -54 66 -54 109c0 10 1 20 4 30l74 283h99l-74 -283c-1 -6 -2 -11 -2 -16c0 -26 17 -47 34 -64c23 -23 53 -41 90 -41s76 18 111 41c32 21 64 47 73 80l74 283h99l-126 -484h-99zM601 738h114l-194 -164h-85z
" />
    <glyph glyph-name="Ncaron" unicode="&#x147;" horiz-adv-x="875" 
d="M98 0l213 820h29l391 -617l160 617h99l-213 -820h-29l-391 617l-160 -617h-99zM741 1046h84l-161 -164h-112l-76 164h84l64 -102z" />
    <glyph glyph-name="one" unicode="1" horiz-adv-x="476" 
d="M224 0l173 666l-190 -87l30 118l270 123h29l-214 -820h-98z" />
    <glyph glyph-name="f" unicode="f" horiz-adv-x="413" 
d="M541 746c-4 18 -14 44 -34 44c-15 0 -29 -13 -41 -26c-14 -15 -27 -33 -32 -51l-59 -229h110l-23 -90h-111l-102 -394h-99l102 394h-110l23 90h111l59 229c11 42 45 79 81 110c35 30 75 57 115 57c49 0 80 -41 98 -79z" />
    <glyph glyph-name="Ugrave" unicode="&#xd9;" horiz-adv-x="832" 
d="M951 820l-140 -540c-20 -77 -89 -139 -160 -191c-74 -54 -157 -99 -238 -99s-141 45 -187 99c-35 42 -65 90 -65 147c0 14 2 29 6 44l140 540h99l-140 -540c-3 -10 -4 -20 -4 -30c0 -40 20 -73 45 -102c32 -37 74 -68 130 -68s113 31 164 68c49 36 97 79 111 132l140 540
h99zM456 1046h115l79 -164h-85z" />
    <glyph glyph-name="macron" unicode="&#xaf;" horiz-adv-x="294" 
d="M152 678l21 80h342l-21 -80h-342z" />
    <glyph glyph-name="dash" horiz-adv-x="441" 
d="M107 197l24 90h329l-24 -90h-329z" />
    <glyph glyph-name="thorn" unicode="&#xfe;" horiz-adv-x="714" 
d="M368 -10c-76 0 -127 63 -156 122l-107 -412h-99l291 1120h99l-116 -449c54 53 141 123 219 123c72 0 126 -39 168 -86c32 -36 59 -78 59 -129c0 -12 -2 -24 -5 -37c-17 -67 -79 -121 -141 -166c-66 -47 -140 -86 -212 -86zM476 404c-47 0 -95 -24 -138 -55
c-41 -29 -81 -64 -92 -107c-2 -8 -3 -16 -3 -24c0 -33 18 -60 39 -83c28 -31 63 -55 110 -55s95 24 138 55c41 29 81 64 92 107c2 8 3 15 3 23c0 33 -18 61 -39 84c-28 31 -63 55 -110 55z" />
    <glyph glyph-name="space" unicode=" " horiz-adv-x="419" 
 />
    </font>
</defs>
</svg>
